<?xml version="1.0" encoding="UTF-8" standalone="no"?>
<svg
   version="1.1"
   id="svg5"
   width="128.13"
   height="128.13"
   xmlns="http://www.w3.org/2000/svg"
   xmlns:svg="http://www.w3.org/2000/svg">
  <defs
     id="defs1">
    <style
       id="style1">.cls-1{fill:#031E3A;}.cls-2{fill:#fff;}</style>
  </defs>
  <g
     id="Isolation_Mode"
     data-name="Isolation Mode">
    <rect
       class="cls-1"
       width="128.13"
       height="128.13"
       rx="64.059998"
       id="rect1"
       x="0"
       y="0" />
    <path
       class="cls-2"
       d="m 73.25,64.37 h 42.07 c 3.22,0 3.23,-5 0,-5 H 73.25 c -3.21,0 -3.22,5 0,5 z"
       id="path1" />
    <circle
       class="cls-2"
       cx="40.299999"
       cy="42.439999"
       r="6.3200002"
       id="circle1" />
    <path
       class="cls-2"
       d="m 105.84,81.29 c -0.38,-0.19 -0.74,-0.38 -1.1,-0.6 a 13.45,13.45 0 0 1 -2,-1.66 c -3.06,-2.81 -7,-4.25 -11.12,-3.22 A 15.4,15.4 0 0 0 86.44,78.33 24,24 0 0 1 81.8,81.39 6.33,6.33 0 0 1 78.2,81.86 9.29,9.29 0 0 1 74,79.38 C 70.86,76.55 67.07,74.84 62.79,75.55 a 12.93,12.93 0 0 0 -4.85,2 c -1.54,1 -2.79,2.37 -4.4,3.26 a 6.94,6.94 0 0 1 -7.75,-0.49 c -1.45,-1 -2.62,-2.34 -4.21,-3.18 a 14.15,14.15 0 0 0 -5.34,-1.58 c -4.12,-0.4 -7.7,1.41 -10.53,4.26 a 7.92,7.92 0 0 1 -3.05,2 6.4,6.4 0 0 1 -1.61,0.18 c -1.66,-0.11 -3.22,0.41 -3.69,2.09 -0.39,1.44 0.49,3.43 2.1,3.69 v 0 a 11.69,11.69 0 0 0 6.69,-1 15.38,15.38 0 0 0 4.46,-3.39 6.11,6.11 0 0 1 3.11,-1.7 7.09,7.09 0 0 1 3.74,0.2 11.45,11.45 0 0 1 3.73,2.43 13.56,13.56 0 0 0 10.93,3.26 13.27,13.27 0 0 0 4.94,-1.85 c 1.56,-1 2.81,-2.35 4.39,-3.28 a 6.26,6.26 0 0 1 3.85,-1 5.58,5.58 0 0 1 1.65,0.4 9,9 0 0 1 2.2,1.33 c 1.69,1.36 3.15,2.85 5.16,3.74 a 11.75,11.75 0 0 0 5.57,1.09 14.23,14.23 0 0 0 5.65,-1.68 c 1.7,-0.89 3.08,-2.18 4.67,-3.22 a 7.75,7.75 0 0 1 4.71,-1.56 5.11,5.11 0 0 1 2,0.64 11.52,11.52 0 0 1 2.3,1.82 14.71,14.71 0 0 0 8.63,4 3,3 0 0 0 3,-3 A 2.93,2.93 0 0 0 108,82 6.44,6.44 0 0 1 105.84,81.29 Z"
       id="path2" />
    <path
       class="cls-2"
       d="m 79.08,78 h 0.11 a 3.18,3.18 0 0 0 1.1,-0.25 13.44,13.44 0 0 0 2.71,-1.81 l 1.15,-0.85 a 20.23,20.23 0 0 1 4.57,-2.51 v -7.83 a 5,5 0 0 0 -10,0 V 77.83 A 2.65,2.65 0 0 0 79.08,78 Z"
       id="path3" />
    <path
       class="cls-2"
       d="m 41.6,77.1 a 14.15,14.15 0 0 0 -5.34,-1.58 11,11 0 0 0 -1.13,-0.06 c -0.18,0 -0.34,0 -0.52,0 L 35,80 44.45,79.24 A 16.18,16.18 0 0 0 41.6,77.1 Z"
       id="path4" />
    <path
       class="cls-2"
       d="m 16,72.38 v 0 l 17,-9.25 a 0.36,0.36 0 0 1 0.53,0.29 l 0.71,8.08 c 0.29,0 0.58,-0.05 0.87,-0.05 0.5,0 1,0 1.51,0.08 a 18.16,18.16 0 0 1 6.82,2 18.68,18.68 0 0 1 3.33,2.38 c 0.46,0.4 0.9,0.77 1.32,1.07 a 3.49,3.49 0 0 0 2,0.72 3,3 0 0 0 1.13,-0.25 L 50.79,61.8 a 0.38,0.38 0 0 1 0.54,-0.36 l 4.75,2 a 0.81,0.81 0 0 1 0.49,0.77 L 56.38,70 a 2.92,2.92 0 0 0 1.94,2.79 16.7,16.7 0 0 1 3.41,-1.1 2.78,2.78 0 0 0 0.48,-1.16 v 0 l 1.77,-8 A 3.15,3.15 0 0 0 62.45,59.1 L 48.38,51.13 A 3.71,3.71 0 0 0 46.45,50.66 L 36.5,51 a 3.54,3.54 0 0 0 -1.84,0.61 l -21.82,15.12 -0.26,0.18 h -0.06 v 0 a 3.19,3.19 0 0 0 -1.25,2.5 3.24,3.24 0 0 0 3.2,3.29 3.3,3.3 0 0 0 1.53,-0.32 z"
       id="path5" />
  </g>
</svg>
