<?xml version="1.0" encoding="UTF-8"?>
<svg width="128.13" height="128.13" version="1.1" xmlns="http://www.w3.org/2000/svg">
 <defs>
  <style>.cls-1{fill:#031E3A;}.cls-2{fill:#fff;}</style>
 </defs>
 <g id="Isolation_Mode" data-name="Isolation Mode">
  <rect class="cls-1" width="128.13" height="128.13" rx="64.06"/>
  <path class="cls-2" d="m73.25 64.37h42.07c3.22 0 3.23-5 0-5h-42.07c-3.21 0-3.22 5 0 5z"/>
  <circle class="cls-2" cx="40.3" cy="42.44" r="6.32"/>
  <path class="cls-2" d="m105.84 81.29c-0.38-0.19-0.74-0.38-1.1-0.6a13.45 13.45 0 0 1-2-1.66c-3.06-2.81-7-4.25-11.12-3.22a15.4 15.4 0 0 0-5.18 2.52 24 24 0 0 1-4.64 3.06 6.33 6.33 0 0 1-3.6 0.47 9.29 9.29 0 0 1-4.2-2.48c-3.14-2.83-6.93-4.54-11.21-3.83a12.93 12.93 0 0 0-4.85 2c-1.54 1-2.79 2.37-4.4 3.26a6.94 6.94 0 0 1-7.75-0.49c-1.45-1-2.62-2.34-4.21-3.18a14.15 14.15 0 0 0-5.34-1.58c-4.12-0.4-7.7 1.41-10.53 4.26a7.92 7.92 0 0 1-3.05 2 6.4 6.4 0 0 1-1.61 0.18c-1.66-0.11-3.22 0.41-3.69 2.09-0.39 1.44 0.49 3.43 2.1 3.69a11.69 11.69 0 0 0 6.69-1 15.38 15.38 0 0 0 4.46-3.39 6.11 6.11 0 0 1 3.11-1.7 7.09 7.09 0 0 1 3.74 0.2 11.45 11.45 0 0 1 3.73 2.43 13.56 13.56 0 0 0 10.93 3.26 13.27 13.27 0 0 0 4.94-1.85c1.56-1 2.81-2.35 4.39-3.28a6.26 6.26 0 0 1 3.85-1 5.58 5.58 0 0 1 1.65 0.4 9 9 0 0 1 2.2 1.33c1.69 1.36 3.15 2.85 5.16 3.74a11.75 11.75 0 0 0 5.57 1.09 14.23 14.23 0 0 0 5.65-1.68c1.7-0.89 3.08-2.18 4.67-3.22a7.75 7.75 0 0 1 4.71-1.56 5.11 5.11 0 0 1 2 0.64 11.52 11.52 0 0 1 2.3 1.82 14.71 14.71 0 0 0 8.63 4 3 3 0 0 0 3-3 2.93 2.93 0 0 0-2.84-3.01 6.44 6.44 0 0 1-2.16-0.71z"/>
  <path class="cls-2" d="m79.08 78h0.11a3.18 3.18 0 0 0 1.1-0.25 13.44 13.44 0 0 0 2.71-1.81l1.15-0.85a20.23 20.23 0 0 1 4.57-2.51v-7.83a5 5 0 0 0-10 0v13.08a2.65 2.65 0 0 0 0.36 0.17z"/>
  <path class="cls-2" d="m41.6 77.1a14.15 14.15 0 0 0-5.34-1.58 11 11 0 0 0-1.13-0.06h-0.52l0.39 4.54 9.45-0.76a16.18 16.18 0 0 0-2.85-2.14z"/>
  <path class="cls-2" d="m16 72.38 17-9.25a0.36 0.36 0 0 1 0.53 0.29l0.71 8.08c0.29 0 0.58-0.05 0.87-0.05 0.5 0 1 0 1.51 0.08a18.16 18.16 0 0 1 6.82 2 18.68 18.68 0 0 1 3.33 2.38c0.46 0.4 0.9 0.77 1.32 1.07a3.49 3.49 0 0 0 2 0.72 3 3 0 0 0 1.13-0.25l-0.43-15.65a0.38 0.38 0 0 1 0.54-0.36l4.75 2a0.81 0.81 0 0 1 0.49 0.77l-0.19 5.79a2.92 2.92 0 0 0 1.94 2.79 16.7 16.7 0 0 1 3.41-1.1 2.78 2.78 0 0 0 0.48-1.16l1.77-8a3.15 3.15 0 0 0-1.53-3.43l-14.07-7.97a3.71 3.71 0 0 0-1.93-0.47l-9.95 0.34a3.54 3.54 0 0 0-1.84 0.61l-21.82 15.12-0.26 0.18h-0.06a3.19 3.19 0 0 0-1.25 2.5 3.24 3.24 0 0 0 3.2 3.29 3.3 3.3 0 0 0 1.53-0.32z"/>
 </g>
</svg>
