<?xml version="1.0" encoding="UTF-8"?>
<svg width="128.13" height="128.13" version="1.1" xmlns="http://www.w3.org/2000/svg">
 <defs>
  <style>.cls-1{fill:#031E3A;}.cls-2{fill:#fff;}</style>
 </defs>
 <g id="Isolation_Mode" data-name="Isolation Mode">
  <rect class="cls-1" width="128.13" height="128.13" rx="64.06"/>
  <path class="cls-2" d="m105.07 81.45c-0.38-0.19-0.74-0.38-1.1-0.6a13.45 13.45 0 0 1-2-1.66c-2.97-2.81-6.97-4.25-11.08-3.19a15.69 15.69 0 0 0-5.18 2.52 24.55 24.55 0 0 1-4.64 3.07 6.32 6.32 0 0 1-3.6 0.46 9.2 9.2 0 0 1-4.22-2.48c-3.14-2.86-6.93-4.57-11.25-3.86a13 13 0 0 0-4.85 2c-1.54 1-2.79 2.37-4.4 3.26a6.94 6.94 0 0 1-7.75-0.53c-1.45-1-2.62-2.34-4.21-3.18a14.15 14.15 0 0 0-5.34-1.58c-4.12-0.4-7.7 1.42-10.53 4.26a7.92 7.92 0 0 1-3.05 2 6.38 6.38 0 0 1-1.6 0.18c-1.67-0.11-3.23 0.42-3.7 2.09a3 3 0 0 0 2.1 3.7 11.78 11.78 0 0 0 6.69-1 15.38 15.38 0 0 0 4.46-3.39 6.1 6.1 0 0 1 3.18-1.73 7.06 7.06 0 0 1 3.73 0.2 11.62 11.62 0 0 1 3.73 2.43 13.56 13.56 0 0 0 10.93 3.26 13.27 13.27 0 0 0 4.94-1.85c1.56-1 2.81-2.34 4.39-3.28a6.26 6.26 0 0 1 3.85-1 5.71 5.71 0 0 1 1.66 0.4 9 9 0 0 1 2.2 1.33c1.68 1.36 3.14 2.86 5.15 3.74a11.75 11.75 0 0 0 5.57 1.09 14.23 14.23 0 0 0 5.65-1.68c1.7-0.89 3.08-2.18 4.67-3.22a7.75 7.75 0 0 1 4.71-1.56 5.23 5.23 0 0 1 2 0.64 11.52 11.52 0 0 1 2.3 1.82 14.65 14.65 0 0 0 8.64 4 3 3 0 0 0 3-3 2.93 2.93 0 0 0-2.88-3 6.53 6.53 0 0 1-2.17-0.66z"/>
  <path class="cls-2" d="m89.92 72.09a15.09 15.09 0 0 1 3.66-0.45 16.38 16.38 0 0 1 11.14 4.61l0.43 0.4a7.37 7.37 0 0 0 0.93 0.8c0.26 0.16 0.56 0.31 0.79 0.43a3.47 3.47 0 0 0 0.66 0.25 7.6 7.6 0 0 1 2.55 0.65v-11.9a4 4 0 0 0-4.2-4c-0.78 0-1.57 0.08-2.38 0.14-12.85 0.84-17.84 5-19.9 12.08a19.13 19.13 0 0 1 6.32-3.01z"/>
  <path class="cls-2" d="m19.88 78.08h0.93a4.67 4.67 0 0 0 1.31-0.94 17.17 17.17 0 0 1 12.24-5.49c0.5 0 1 0 1.51 0.07a18.16 18.16 0 0 1 6.82 2 17.87 17.87 0 0 1 3.31 2.39c0.46 0.39 0.9 0.77 1.32 1.06l0.14 0.09c-1.75-8.41-6.6-13.32-21.37-14.26-1.9-0.12-3.72-0.21-5.45-0.26a4 4 0 0 0-4.12 4v12a8 8 0 0 1 3.36-0.66z"/>
  <path class="cls-2" d="m103 67.58a49.83 49.83 0 0 0-6.74-7v-16.18a39.52 39.52 0 0 1 3.64 2.93c1.79 1.62 4.45-1 2.66-2.65-15.69-14.23-40.56-16.93-59.98-9.95a52.07 52.07 0 0 0-14.87 8.15 1.8738 1.8738 0 0 0 2.65 2.65c0.81-0.63 1.64-1.23 2.49-1.81v16.11a50.38 50.38 0 0 0-5.58 5.25c-2.16 2.38 1.36 5.93 3.53 3.54a45.33 45.33 0 0 1 26.33-14.32 44.77 44.77 0 0 1 29.64 5.7 46.08 46.08 0 0 1 12.66 11.11 2.52 2.52 0 0 0 3.54 0 2.56 2.56 0 0 0 0.03-3.53zm-67.65-9.65v-15.78a51.5 51.5 0 0 1 12.48-5.15v14.52a50.84 50.84 0 0 0-5.73 2.37 47.62 47.62 0 0 0-6.75 4.04zm15-7.19v-14.38a59.46 59.46 0 0 1 6.56-1.1c2-0.22 3.94-0.34 5.93-0.38v13.94a50.39 50.39 0 0 0-12.51 1.92zm15-1.92v-13.94a62.17 62.17 0 0 1 13 1.59v14.38c-0.86-0.26-1.73-0.5-2.6-0.71a49.82 49.82 0 0 0-10.43-1.32zm15.46 2.85v-14.55a55.39 55.39 0 0 1 6.38 2.23 46.85 46.85 0 0 1 6.57 3.38v15.9a49.82 49.82 0 0 0-12.98-6.96z"/>
 </g>
</svg>
