<?xml version="1.0" encoding="UTF-8" standalone="no"?>
<svg
   version="1.1"
   id="svg4"
   width="128.13"
   height="128.13"
   xmlns="http://www.w3.org/2000/svg"
   xmlns:svg="http://www.w3.org/2000/svg">
  <defs
     id="defs1">
    <style
       id="style1">.cls-1{fill:#031E3A;}.cls-2{fill:#fff;}</style>
  </defs>
  <g
     id="Isolation_Mode"
     data-name="Isolation Mode">
    <rect
       class="cls-1"
       width="128.13"
       height="128.13"
       rx="64.059998"
       id="rect1"
       x="0"
       y="0" />
    <path
       class="cls-2"
       d="m 105.07,81.45 c -0.38,-0.19 -0.74,-0.38 -1.1,-0.6 a 13.45,13.45 0 0 1 -2,-1.66 C 99,76.38 95,74.94 90.89,76 a 15.69,15.69 0 0 0 -5.18,2.52 24.55,24.55 0 0 1 -4.64,3.07 6.32,6.32 0 0 1 -3.6,0.46 9.2,9.2 0 0 1 -4.22,-2.48 C 70.11,76.71 66.32,75 62,75.71 a 13,13 0 0 0 -4.85,2 c -1.54,1 -2.79,2.37 -4.4,3.26 A 6.94,6.94 0 0 1 45,80.44 c -1.45,-1 -2.62,-2.34 -4.21,-3.18 a 14.15,14.15 0 0 0 -5.34,-1.58 c -4.12,-0.4 -7.7,1.42 -10.53,4.26 a 7.92,7.92 0 0 1 -3.05,2 6.38,6.38 0 0 1 -1.6,0.18 c -1.67,-0.11 -3.23,0.42 -3.7,2.09 a 3,3 0 0 0 2.1,3.7 v 0 a 11.78,11.78 0 0 0 6.69,-1 15.38,15.38 0 0 0 4.46,-3.39 6.1,6.1 0 0 1 3.18,-1.73 7.06,7.06 0 0 1 3.73,0.2 11.62,11.62 0 0 1 3.73,2.43 13.56,13.56 0 0 0 10.93,3.26 13.27,13.27 0 0 0 4.94,-1.85 c 1.56,-1 2.81,-2.34 4.39,-3.28 a 6.26,6.26 0 0 1 3.85,-1 5.71,5.71 0 0 1 1.66,0.4 9,9 0 0 1 2.2,1.33 c 1.68,1.36 3.14,2.86 5.15,3.74 a 11.75,11.75 0 0 0 5.57,1.09 14.23,14.23 0 0 0 5.65,-1.68 c 1.7,-0.89 3.08,-2.18 4.67,-3.22 a 7.75,7.75 0 0 1 4.71,-1.56 5.23,5.23 0 0 1 2,0.64 11.52,11.52 0 0 1 2.3,1.82 14.65,14.65 0 0 0 8.64,4 3,3 0 0 0 3,-3 2.93,2.93 0 0 0 -2.88,-3 6.53,6.53 0 0 1 -2.17,-0.66 z"
       id="path1" />
    <path
       class="cls-2"
       d="m 89.92,72.09 a 15.09,15.09 0 0 1 3.66,-0.45 16.38,16.38 0 0 1 11.14,4.61 l 0.43,0.4 a 7.37,7.37 0 0 0 0.93,0.8 c 0.26,0.16 0.56,0.31 0.79,0.43 a 3.47,3.47 0 0 0 0.66,0.25 7.6,7.6 0 0 1 2.55,0.65 v -11.9 a 4,4 0 0 0 -4.2,-4 c -0.78,0 -1.57,0.08 -2.38,0.14 -12.85,0.84 -17.84,5 -19.9,12.08 a 19.13,19.13 0 0 1 6.32,-3.01 z"
       id="path2" />
    <path
       class="cls-2"
       d="m 19.88,78.08 h 0.58 0.35 a 4.67,4.67 0 0 0 1.31,-0.94 17.17,17.17 0 0 1 12.24,-5.49 c 0.5,0 1,0 1.51,0.07 a 18.16,18.16 0 0 1 6.82,2 17.87,17.87 0 0 1 3.31,2.39 c 0.46,0.39 0.9,0.77 1.32,1.06 l 0.14,0.09 C 45.71,68.85 40.86,63.94 26.09,63 24.19,62.88 22.37,62.79 20.64,62.74 a 4,4 0 0 0 -4.12,4 v 12 a 8,8 0 0 1 3.36,-0.66 z"
       id="path3" />
    <path
       class="cls-2"
       d="m 103,67.58 a 49.83,49.83 0 0 0 -6.74,-7 V 44.4 a 39.52,39.52 0 0 1 3.64,2.93 c 1.79,1.62 4.45,-1 2.66,-2.65 C 86.87,30.45 62,27.75 42.58,34.73 a 52.07,52.07 0 0 0 -14.87,8.15 1.873833,1.873833 0 0 0 2.65,2.65 C 31.17,44.9 32,44.3 32.85,43.72 v 16.11 a 50.38,50.38 0 0 0 -5.58,5.25 c -2.16,2.38 1.36,5.93 3.53,3.54 A 45.33,45.33 0 0 1 57.13,54.3 44.77,44.77 0 0 1 86.77,60 a 46.08,46.08 0 0 1 12.66,11.11 2.52,2.52 0 0 0 3.54,0 2.56,2.56 0 0 0 0.03,-3.53 z M 35.35,57.93 V 42.15 A 51.5,51.5 0 0 1 47.83,37 v 14.52 a 50.84,50.84 0 0 0 -5.73,2.37 47.62,47.62 0 0 0 -6.75,4.04 z m 15,-7.19 V 36.36 a 59.46,59.46 0 0 1 6.56,-1.1 c 2,-0.22 3.94,-0.34 5.93,-0.38 v 13.94 a 50.39,50.39 0 0 0 -12.51,1.92 z m 15,-1.92 V 34.88 a 62.17,62.17 0 0 1 13,1.59 v 14.38 c -0.86,-0.26 -1.73,-0.5 -2.6,-0.71 A 49.82,49.82 0 0 0 65.32,48.82 Z m 15.46,2.85 V 37.12 a 55.39,55.39 0 0 1 6.38,2.23 46.85,46.85 0 0 1 6.57,3.38 v 15.9 A 49.82,49.82 0 0 0 80.78,51.67 Z"
       id="path4" />
  </g>
</svg>
