<?xml version="1.0" encoding="UTF-8"?>
<svg width="15.59" height="15.59" version="1.1" xmlns="http://www.w3.org/2000/svg">
 <defs>
  <style>.cls-1 {
        fill: #031E3A;
      }

      .cls-1, .cls-2 {
        stroke-width: 0px;
      }

      .cls-2 {
        fill: #fff;
      }</style>
 </defs>
 <g id="Cirkel">
  <rect class="cls-1" width="15.59" height="15.59" rx="7.8" ry="7.8"/>
 </g>
 <g id="ICONS">
  <path class="cls-2" d="m5.21 10.62c0.9 0 1.63-0.73 1.63-1.63 0-0.4-0.15-0.75-0.38-1.03l0.52-0.52s0.04-0.06 0.04-0.1l0.26 0.17-0.11 1.35c-0.02 0.21 0.14 0.39 0.34 0.4h0.03c0.19 0 0.36-0.15 0.37-0.34l0.06-0.68 1.37-1.17 0.11 0.4c-0.62 0.23-1.07 0.82-1.07 1.52 0 0.9 0.73 1.63 1.63 1.63s1.63-0.73 1.63-1.63-0.73-1.63-1.63-1.63c-0.09 0-0.18 0.01-0.27 0.03l-0.31-1.15c0.09-0.05 0.16-0.13 0.18-0.24 0.04-0.2-0.09-0.4-0.3-0.44l-0.93-0.18-0.59-0.88-0.07-0.07c-0.02-0.02-0.02-0.04-0.04-0.05-0.25-0.22-0.63-0.2-0.85 0.05l-1.08 1.23c-0.18 0.21-0.19 0.49-0.05 0.71 0.02 0.04 0.04 0.07 0.07 0.1 0.01 0.01 0.02 0.03 0.03 0.04 0 0 0.01 0 0.02 0.01l0.02 0.02 0.97 0.65s-0.04 0-0.05 0.02l-0.52 0.52c-0.28-0.23-0.64-0.38-1.03-0.38-0.9 0-1.63 0.73-1.63 1.63s0.73 1.63 1.63 1.63zm4.66-1.59c0.02 0.07 0.08 0.11 0.14 0.11h0.04c0.08-0.02 0.13-0.1 0.11-0.18l-0.31-1.16c0.06 0 0.11-0.03 0.17-0.03 0.68 0 1.23 0.55 1.23 1.23s-0.55 1.23-1.23 1.23-1.23-0.55-1.23-1.23c0-0.51 0.32-0.95 0.77-1.14zm-2.34-3.57 0.32 0.47c0.05 0.08 0.14 0.14 0.24 0.16l1.05 0.21 0.12 0.45-1.25 1.07 0.05-0.62s0-0.06-0.01-0.09v-0.01c0-0.05-0.03-0.09-0.05-0.13 0-0.01-0.01-0.03-0.02-0.04-0.03-0.04-0.06-0.08-0.11-0.11l-0.95-0.64 0.63-0.71zm-1.13 3.38h-0.84l0.59-0.59c0.13 0.17 0.22 0.37 0.24 0.59zm-1.2-1.08c0.28 0 0.53 0.11 0.74 0.27l-0.85 0.85s-0.06 0.11-0.03 0.16c0.02 0.06 0.08 0.09 0.14 0.09h1.2c-0.08 0.6-0.57 1.08-1.2 1.08-0.68 0-1.23-0.55-1.23-1.23s0.55-1.23 1.23-1.23z"/>
  <path class="cls-2" d="m8.42 4.38c0.39 0 0.71-0.32 0.71-0.71s-0.32-0.71-0.71-0.71-0.71 0.32-0.71 0.71 0.32 0.71 0.71 0.71z"/>
  <path class="cls-2" d="m9.05 11.65c-0.08 0-0.15 0.07-0.15 0.15s0.07 0.15 0.15 0.15h0.5c0.08 0 0.15-0.07 0.15-0.15s-0.07-0.15-0.15-0.15z"/>
  <path class="cls-2" d="m10.05 11.65c-0.08 0-0.15 0.07-0.15 0.15s0.07 0.15 0.15 0.15h0.5c0.08 0 0.15-0.07 0.15-0.15s-0.07-0.15-0.15-0.15z"/>
  <path class="cls-2" d="m8.05 11.65c-0.08 0-0.15 0.07-0.15 0.15s0.07 0.15 0.15 0.15h0.5c0.08 0 0.15-0.07 0.15-0.15s-0.07-0.15-0.15-0.15z"/>
  <path class="cls-2" d="m10.89 11.8c0 0.08 0.07 0.15 0.15 0.15h0.5c0.08 0 0.15-0.07 0.15-0.15s-0.07-0.15-0.15-0.15h-0.5c-0.08 0-0.15 0.07-0.15 0.15z"/>
  <path class="cls-2" d="m3.7 11.8c0-0.08-0.07-0.15-0.15-0.15h-0.5c-0.08 0-0.15 0.07-0.15 0.15s0.07 0.15 0.15 0.15h0.5c0.08 0 0.15-0.07 0.15-0.15z"/>
  <path class="cls-2" d="m12.55 11.65h-0.5c-0.08 0-0.15 0.07-0.15 0.15s0.07 0.15 0.15 0.15h0.5c0.08 0 0.15-0.07 0.15-0.15s-0.07-0.15-0.15-0.15z"/>
  <path class="cls-2" d="m4.05 11.95h0.5c0.08 0 0.15-0.07 0.15-0.15s-0.07-0.15-0.15-0.15h-0.5c-0.08 0-0.15 0.07-0.15 0.15s0.07 0.15 0.15 0.15z"/>
  <path class="cls-2" d="m5.05 11.65c-0.08 0-0.15 0.07-0.15 0.15s0.07 0.15 0.15 0.15h0.5c0.08 0 0.15-0.07 0.15-0.15s-0.07-0.15-0.15-0.15z"/>
  <path class="cls-2" d="m6.05 11.65c-0.08 0-0.15 0.07-0.15 0.15s0.07 0.15 0.15 0.15h0.5c0.08 0 0.15-0.07 0.15-0.15s-0.07-0.15-0.15-0.15z"/>
  <path class="cls-2" d="m7.05 11.65c-0.08 0-0.15 0.07-0.15 0.15s0.07 0.15 0.15 0.15h0.5c0.08 0 0.15-0.07 0.15-0.15s-0.07-0.15-0.15-0.15z"/>
  <circle class="cls-2" cx="7.8" cy="11.8" r=".9"/>
 </g>
</svg>
