<?xml version="1.0" encoding="UTF-8"?>
<svg width="15.591" height="15.591" version="1.1" xmlns="http://www.w3.org/2000/svg">
 <defs>
  <style>.cls-1{fill:#031E3A;}.cls-2{fill:#fff;}</style>
 </defs>
 <g id="Cirkel">
  <rect width="15.591" height="15.591" rx="7.7953" ry="7.7953"/>
 </g>
 <g id="ICONS">
  <circle class="cls-2" cx="4.6648" cy="3.3202" r=".92432"/>
  <path class="cls-2" d="m6.4253 10.992c0.22803 0 0.41284-0.18488 0.41284-0.41284l0.13239-1.4736c0.00177-0.0199-0.00629-0.03925-0.00586-0.0592h-0.85773c0.01709 0.06409 0.04407 0.12646 0.03754 0.19312l-0.13208 1.3397c0 0.22797 0.18488 0.41284 0.4129 0.41284z"/>
  <path class="cls-2" d="m3.5258 10.999c0.11115 0 0.21118-0.04504 0.28546-0.11658l2.4e-4 3.1e-4 0.00269-0.0023c0.0014-0.0014 0.00305-0.0024 0.00446-0.0038l1.2686-1.0712c0.09259-0.07819 0.16321-0.17914 0.20496-0.29291l0.14362-0.46606h-0.90631c-0.0694 0.15234-0.16742 0.29016-0.29541 0.39868l-0.9856 0.83618 0.00171 0.0018c-0.08307 0.0755-0.13727 0.18182-0.13727 0.30292 0 0.22809 0.18481 0.4129 0.4129 0.4129z"/>
  <path class="cls-2" d="m12.834 11.961c-0.15979 0-0.2298-0.0614-0.33588-0.15399-0.12189-0.10657-0.2738-0.23926-0.56384-0.23926-0.2901 0-0.44226 0.13269-0.56439 0.23926-0.07172 0.06262-0.13654 0.10187-0.21436 0.12659l-1.3982-8.1141c0.05328 0.00488 0.09857 7.9e-4 0.1532 0.0072 0.08203 0 0.15625-0.0498 0.16699-0.13184 0.00879-0.08203-0.0498-0.15723-0.13184-0.16699-1.0589-0.12488-1.8746 0.03821-2.4697 0.45123-0.00787-0.01501-0.01025-0.03156-0.02032-0.04578-0.10645-0.15002-0.29852-0.1936-0.46143-0.12543 0 0-0.7196 0.53546-1.0504 0.64294-0.31152 0.10126-1.165 0.15118-1.5996 0.17065-0.14667 0.00653-0.25812 0.12982-0.25372 0.27655 0 0-0.00134 0.9502 0.10791 1.2003 0.09698 0.22198 0.43182 0.19788 0.43182 0.19788l0.26727 1.5128h1.7561l-0.32007-1.0878 0.25024 0.06622c0.01202 0.00293 0.04761 0.00903 0.04761 0.00903 0.0813 0.00854 0.16577-0.00775 0.23761-0.05878 0.15692-0.11127 0.19391-0.32874 0.08258-0.4856-0.05029-0.07092-0.12396-0.11273-0.20227-0.13184 0.00195-0.38263 0.08295-1.0751 0.55273-1.6071 0.0257-0.01727 0.06006-0.04028 0.06213-0.04175 0.04449-0.03156 0.07965-0.07104 0.1062-0.11487 0.46509-0.40948 1.149-0.5899 2.0313-0.54901l1.3999 8.124c-0.07324-0.02551-0.13568-0.06421-0.20471-0.12445-0.12213-0.10657-0.27423-0.23926-0.56458-0.23926-0.29004 0-0.4422 0.13269-0.56427 0.23926-0.10614 0.09259-0.17633 0.15399-0.33661 0.15399-0.16095 0-0.23114-0.0614-0.33771-0.15399-0.09198-0.0799-0.18817-0.15295-0.30426-0.19403-0.07794-0.02753-0.16071-0.04382-0.24353-0.04395-0.03662-6e-5 -0.08093-9.2e-4 -0.11462 0.01477-0.0285 0.01324-0.05499 0.03143-0.07538 0.0556-0.02429 0.02887-0.03772 0.065-0.03772 0.10284 0 0.06366 0.03937 0.12689 0.09375 0.15887 0.01398 0.0082 0.02869 0.01361 0.04431 0.01758 0.01758 0.0045 0.03345 0.0015 0.05145 3.1e-4 0.03973-0.0026 0.08014-0.0013 0.11902 0.0077 0.09137 0.02124 0.16974 0.08118 0.23926 0.14166 0.12256 0.10657 0.27472 0.23926 0.56543 0.23926 0.29028 0 0.44244-0.13269 0.56458-0.23926 0.10608-0.09259 0.17627-0.15393 0.3363-0.15393 0.16034 0 0.23047 0.06134 0.33661 0.15393 0.12213 0.10657 0.27423 0.23926 0.56433 0.23926 0.29028 0 0.44244-0.13269 0.56451-0.23926 0.10614-0.09259 0.17633-0.15393 0.33643-0.15393 0.15973 0 0.22974 0.06134 0.33588 0.15393 0.12189 0.10657 0.27374 0.23926 0.56384 0.23926 0.0957 0 0.17334-0.07764 0.17334-0.17334s-0.07764-0.17334-0.17334-0.17334zm-6.3843-5.916-0.30029-0.07355-0.22614-0.81268s0.49341-0.13007 0.65741-0.20355c0.03046-0.01367 0.07922-0.04266 0.12213-0.06665-0.1936 0.42865-0.24591 0.85541-0.25311 1.1564z"/>
  <polygon class="cls-2" points="6.7754 8.2214 5.7145 8.2214 5.6992 8.1921 5.6901 8.2214 4.8059 8.2214 2.583 8.2214 2.583 8.6341 4.6726 8.6341 5.563 8.6341 5.9303 8.6341 6.8968 8.6341 7.402 8.6341 7.402 9.0467 7.402 11.058 2.5836 11.058 2.5836 11.558 7.402 11.558 7.402 13.195 7.902 13.195 7.902 11.308 7.902 11.058 7.902 7.4602 7.402 7.4602 7.402 7.8088 7.402 8.2214"/>
 </g>
</svg>
