<?xml version="1.0" encoding="UTF-8"?>
<svg width="7.2265" height="11.455" version="1.1" xmlns="http://www.w3.org/2000/svg">
 <defs>
  <style>.cls-1{fill:#fff;}.cls-2{fill:#031E3A;}</style>
 </defs>
 <g id="Cirkel" transform="translate(-4.182 -1.7842)">
  <rect class="cls-2" width="15.591" height="15.591" rx="7.7953" ry="7.7953"/>
 </g>
 <g id="ICONS" transform="translate(-4.182 -1.7842)">
  <path class="cls-1" d="m11.383 6.8244c-0.04541-0.06738-0.13867-0.08594-0.20752-0.04199-0.00342 0.00195-0.36084 0.23145-1.0303 0.23145h-2.2197c-0.66553 0-1.0215-0.22559-1.0303-0.23145-0.06641-0.04297-0.16064-0.02734-0.20752 0.04102-0.04639 0.06934-0.02783 0.16211 0.04053 0.20801 0.01709 0.01172 0.42822 0.2832 1.1973 0.2832h0.95996v1.7034c-0.20227 0.05029-0.3916 0.21875-0.3916 0.69312v2.8125c0 0.66406 0.41455 0.71582 0.5415 0.71582 0.26074 0 0.5415-0.22461 0.5415-0.71582v-2.8613c0-0.44147-0.18933-0.59875-0.3916-0.64575v-1.7019h0.95996c0.76855 0 1.1797-0.27148 1.1968-0.2832 0.06885-0.0459 0.08691-0.1377 0.04102-0.20703zm-2.106 2.8379v2.8613c0 0.32812-0.15186 0.41504-0.2417 0.41504-0.16016 0-0.2417-0.13965-0.2417-0.41504v-2.8125c0-0.3457 0.09277-0.41504 0.2417-0.41504 0.10205 0 0.2417 0 0.2417 0.36621z"/>
  <path class="cls-1" d="m8.0332 5.5332v1.1644h2.0045v-1.1644s0.30804 0.43018 0.36816 1.1644c0 0 0.42072-0.01202 0.72119-0.32751 0 0-0.04749-2.2737-1.1109-2.2737h-1.9613c-1.0634 0-1.1109 2.2737-1.1109 2.2737 0.30048 0.31549 0.72119 0.32751 0.72119 0.32751 0.06012-0.73419 0.3681-1.1644 0.3681-1.1644z"/>
  <circle class="cls-1" cx="9.0354" cy="2.7694" r=".98517"/>
  <path class="cls-1" d="m9.5583 8.7702s0.35547 0.15063 0.35547 0.68378v1.6873s0.31146 0 0.31146-0.47516v-3.0518h-0.66693z"/>
  <path class="cls-1" d="m8.5181 7.6142h-0.66693l-0.89819 2.2898-0.27319 0.69641-0.02362 0.06012c-3.7e-4 0.0013 0 0.0021-3.7e-4 0.0034-0.02179 0.07922-0.02686 0.14771-0.02106 0.20782 0.00201 0.02081 0.01068 0.0354 0.0155 0.05396 0.00928 0.03613 0.01898 0.07123 0.03729 0.09875 0.01093 0.01648 0.02545 0.02765 0.03912 0.04114 0.02081 0.02063 0.04163 0.04004 0.0675 0.05365 0.0177 0.0093 0.03625 0.01495 0.05579 0.02106 0.02753 0.0086 0.05475 0.01495 0.08466 0.01709 0.01019 7.3e-4 0.0188 0.0059 0.02917 0.0059 0.00714 0 0.01428-6e-3 0.02148-0.0064 0.07544-0.0035 0.15131-0.02374 0.22253-0.06567 0.01031-6e-3 0.01794-0.0141 0.02789-0.021 0.07318-0.04996 0.1394-0.11575 0.18121-0.20786 0.12408-0.27344 0.74573-1.4084 0.74573-1.4084 0-0.53314 0.35547-0.68378 0.35547-0.68378v-1.1559z"/>
  <path class="cls-1" d="m6.4318 11.242c-0.06415-0.08453-0.14661-0.2594-0.11182-0.53333l-1.8381 0.55042v-3.0098l2.5468-0.76245c-0.15295-0.04639-0.31372-0.11475-0.46204-0.20636l-2.0848 0.62415v-0.8504c0-0.08301-0.06689-0.15039-0.1499-0.15039s-0.1499 0.06738-0.1499 0.15039v6.0352c0 0.08301 0.06689 0.15039 0.1499 0.15039s0.1499-0.06738 0.1499-0.15039v-1.0007l2.1948-0.65729c-0.09631-0.04315-0.18115-0.10547-0.24487-0.18945z"/>
  <path class="cls-1" d="m7.8078 10.812c-0.03931 0.08032-0.07074 0.14453-0.08984 0.18665-0.02484 0.05469-0.06018 0.10138-0.09479 0.1485l0.53058-0.15881v-0.82965l-0.04669 0.01398c-0.10828 0.2439-0.21912 0.47534-0.29926 0.63934z"/>
 </g>
</svg>
