<?xml version="1.0" encoding="UTF-8"?>
<svg id="ICONS" width="15.591" height="15.591" version="1.1" xmlns="http://www.w3.org/2000/svg">
 <defs>
  <style>.cls-1{fill:#fff;}.cls-2{fill:#031E3A;}</style>
 </defs>
 <rect class="cls-2" width="15.591" height="15.591" rx="7.7953" ry="7.7953"/>
 <path class="cls-1" d="m12.953 11.068h-4.8312v-0.87555c0.64124-0.27344 1.0532-1.2841 1.222-2.4812 0.09943 0.0553 0.21143 0.12079 0.3269 0.18604 0.12354 0.06976 0.24579 0.13403 0.34344 0.159 0.27374 0.06976 1.3134 0.03522 1.5084 0.10504l0.49188 0.44141s0.22931 0.28613 0.47339 0.11163c0.24396-0.17456-0.05566-0.43408-0.11963-0.48785-0.06396-0.05389-1.1377-1.1894-1.6293-1.2398 0 0-0.11115-0.27148-0.263-0.41382 0 0 0.34894-0.39636 0.7525-0.54132 0.40369-0.14502 0.53314-0.14691 0.60632-0.2135 0.06744-0.06122 0.08411-0.21667-0.29413-0.17261-0.34619 0.04047-1.3143 0.30951-1.7687 0.45959-0.04199 0.01385-0.10474 0.03241-0.1366 0.04388 0 0-0.08832 0.04401-0.20856 0.07684-0.0415-1.8296-0.60431-3.6144-1.6552-3.6144-0.90436 0-1.4451 1.3246-1.6066 2.8592-0.03021-0.00195-0.04633-0.0022-0.04633-0.0022l-0.28198-0.1875-0.38879-0.25861s0.2915-0.56506 0.18317-0.65509c-0.09778-0.0813-0.7002 0.3374-0.7002 0.3374s-0.15509-0.02698-0.20734-0.03223c-0.27106-0.02734-0.80969-0.03784-1.0787 0.15631-0.18079 0.13043-0.31293 0.34399-0.31293 0.34399s-0.52594 0.07886-0.55231 0.12122c-0.02631 0.04236 0.05737 0.7724 0.32678 0.86554 0.26935 0.09302 1.3986 0.20148 1.3986 0.20148s0.3241 0.12628 0.39368 0.5332c0.01672 0.09839-1.0892 0.461-1.0892 0.461s-0.50568 0.17188-0.49774 0.3609c0.01886 0.4472 0.91846 0.11902 0.91846 0.11902s1.1446-0.35077 1.4454-0.34161c0.02448 7.3e-4 0.09143 0.00299 0.1485 0.00488 0.0882 0.00281 0.20428 0.00671 0.35217 0.01172 0.14966 1.2826 0.56885 2.3951 1.2452 2.6837v0.87427h-4.7848c-0.11035 0-0.2002 0.08984-0.2002 0.2002s0.08984 0.2002 0.2002 0.2002h4.7848v0.81055h-1.0601c-0.19354 0-0.35016 0.15729-0.35016 0.35016s0.15662 0.35016 0.35016 0.35016h2.7822c0.19354 0 0.35016-0.15729 0.35016-0.35016s-0.15662-0.35016-0.35016-0.35016h-1.0218v-0.81055h4.8312c0.11035 0 0.2002-0.08984 0.2002-0.2002s-0.08984-0.2002-0.2002-0.2002zm-6.07-3.5341c0.11456 0.00391 0.23425 8e-3 0.35303 0.01215 0.37329 0.01282 0.74072 0.0257 1.0638 0.03735 0.04956-0.33716 0.08453-0.71063 0.08453-1.1421 0-0.15216-0.01862-0.27179-0.02582-0.41248-0.37506-0.12006-0.81305-0.26117-1.1517-0.3559-0.09393-0.02625-0.18042-0.04907-0.255-0.06659-0.03741-0.00885-0.06183-0.0127-0.0965-0.02039 0.14038-1.3904 0.59473-2.2743 0.9162-2.2743 0.36255 0 0.89362 1.123 0.95166 2.8329 0.00336 0.09955 0.01129 0.1933 0.01129 0.29675 0 0.4209-0.03229 0.8042-0.08167 1.1549-0.17114 1.2164-0.58344 1.9747-0.88129 1.9747-0.30273 0-0.7229-0.78503-0.88861-2.037z"/>
</svg>
