<?xml version="1.0" encoding="UTF-8"?>
<svg id="ICONS" width="15.591" height="15.591" version="1.1" xmlns="http://www.w3.org/2000/svg">
 <defs>
  <style>.cls-1{fill:#fff;}.cls-2{fill:#031E3A;}</style>
 </defs>
 <rect class="cls-2" width="15.591" height="15.591" rx="7.7953" ry="7.7953"/>
 <path class="cls-1" d="m9.4434 9.3623c-0.19869 0-0.35974 0.16107-0.35974 0.35977 0 0.19867 0.16105 0.35974 0.35974 0.35974s0.35974-0.16107 0.35974-0.35974c0-0.19869-0.16105-0.35977-0.35974-0.35977z"/>
 <path class="cls-1" d="m11.645 10.105c-0.55243 0-1.0003-0.16382-1.0003-0.36584v0.16797c0 0.20203 0.44788 0.36578 1.0003 0.36578 0.55249 0 1.0003-0.16376 1.0003-0.36578v-0.16797c0 0.20203-0.44781 0.36584-1.0003 0.36584z"/>
 <path class="cls-1" d="m11.645 9.9106c0.48157 0 0.83527-0.13202 0.97345-0.28064 0.01758-0.01892 0.02686-0.05927 0.02686-0.08521 0-0.19141-0.40643-0.34375-0.91864-0.35974v-2.5158c0.33893-0.04218 0.6051-0.31995 0.6051-0.67023 0-0.37927-0.30743-0.68677-0.68677-0.68677-0.37927 0-0.68671 0.3075-0.68671 0.68677 0 0.35022 0.26617 0.62805 0.60504 0.67023v2.5158c-0.51221 0.01599-0.91864 0.16833-0.91864 0.35974 0 0.02594 0.02032 0.08154 0.03754 0.10645 0.06976 0.1012 0.4812 0.2594 0.96277 0.2594z"/>
 <path class="cls-1" d="m5.2912 4.0459c0.54737 0 0.99113-0.44376 0.99113-0.99113 0-0.54742-0.44376-0.99119-0.99113-0.99119-0.54742 0-0.99119 0.44376-0.99119 0.99119 0 0.54737 0.44376 0.99113 0.99119 0.99113z"/>
 <path class="cls-1" d="m9.0472 12.542-0.01612-0.04483c-0.05969-0.16586-0.11403-0.30524-0.40833-0.19229l-0.33993 0.12229-1.4404-4.0171c0.3995-0.44416 1.1911-1.5594 1.1473-1.9189-0.06477-0.53183-0.41529-1.013-0.68946-1.429-0.46573-0.70648-1.1663-0.64966-1.6818-0.64847h-0.46071l-0.17822 0.00285c-0.62403 0.00518-1.3981 0.53524-1.3551 1.1578l0.02187 2.6241 0.08075 4.5821c0 0.24817 0.20118 0.44934 0.44929 0.44934 0.24817 0 0.44934-0.20118 0.44934-0.44934l0.46415-3.983h0.1359l0.46415 3.983h0.00974c0 0.24817 0.20118 0.44934 0.44929 0.44934 0.24817 0 0.44934-0.20118 0.44934-0.44934 0-0.02193-0.00946-0.04073-0.01247-0.0618l0.11082-3.9028 1.3282 3.704 0.12907-0.04642-0.46899 0.16871c-0.26491 0.10167-0.25193 0.24247-0.19229 0.40833l0.01612 0.04477c0.05964 0.16586 0.13738 0.28508 0.40833 0.19229l0.93799-0.33736c0.28821-0.11232 0.25193-0.24247 0.19229-0.40833zm-1.9127-5.9369-0.46531 0.69009v-1.4596z"/>
</svg>
