<?xml version="1.0" encoding="UTF-8"?>
<svg id="ICONS" width="15.591" height="15.591" version="1.1" xmlns="http://www.w3.org/2000/svg">
 <defs>
  <style>.cls-1{fill:#fff;}.cls-2{fill:#031E3A;}</style>
 </defs>
 <rect class="cls-2" width="15.591" height="15.591" rx="7.7953" ry="7.7953"/>
 <path class="cls-1" d="m12.428 6.4048c-0.0094-0.01477-0.00317-0.04437 0.02325-0.04437h0.31793c0.07965 0 0.12946-0.08624 0.08966-0.15515l-0.94232-1.6321c-0.03979-0.06903-0.13934-0.06903-0.1792 0l-0.94226 1.6321c-0.03986 0.06891 0.0099 0.15515 0.0896 0.15515 0 0 0.29248-1.2e-4 0.31891 0 0.02167 1.8e-4 0.03204 0.02753 0.02466 0.04028-0.0074 0.01275-0.81879 1.4182-0.81879 1.4182-0.03986 0.06891 0.0099 0.15515 0.0896 0.15515h1.0326c0.05511 0 0.09973 0.04468 0.09973 0.09979v1.3599c0 7.3e-4 7.9e-4 0.00116 7.9e-4 0.00189-0.54578-0.02026-1.2539-0.00702-2.0928 0.10028v-0.78473c0-0.04419 0.03583-0.07996 0.07996-0.07996h0.79504c0.06158 0 0.10004-0.06665 0.06927-0.11993 0 0-0.6236-1.0814-0.63092-1.0928-0.00732-0.01147-0.0025-0.0343 0.01794-0.0343h0.24573c0.06152 0 0.09998-0.06665 0.06921-0.11993l-0.72815-1.2612c-0.03076-0.05334-0.10773-0.05334-0.13849 0l-0.72821 1.2612c-0.03076 0.05328 0.00769 0.11993 0.06927 0.11993 0 0 0.22601-1.2e-4 0.24646 0 0.01672 1.2e-4 0.02472 0.02124 0.01904 0.03113s-0.63275 1.096-0.63275 1.096c-0.03082 0.05328 0.00769 0.11993 0.06921 0.11993h0.7981c0.04254 0 0.07703 0.03455 0.07703 0.07709v0.83197c-0.7851 0.11749-1.6675 0.31616-2.6227 0.64154-0.55139-0.37628-1.3417-0.57123-2.1096-0.66736v-0.72998c0-0.09619 0.078-0.17413 0.17413-0.17413h1.7316c0.13409 0 0.21783-0.1452 0.15088-0.26123 0 0-1.3583-2.3552-1.3742-2.38-0.01593-0.02496-0.00543-0.07471 0.03906-0.07471h0.53516c0.13409 0 0.21783-0.14514 0.15088-0.26123l-1.586-2.747c-0.06696-0.11609-0.23456-0.11609-0.30157 0l-1.586 2.747c-0.06708 0.11609 0.01672 0.26123 0.15082 0.26123 0 0 0.49225-3.1e-4 0.53674 0 0.03656 3.1e-4 0.05396 0.04626 0.04156 0.06775-0.01245 0.02148-1.3782 2.387-1.3782 2.387-0.06702 0.11609 0.01678 0.26123 0.15082 0.26123h1.7382c0.09271 0 0.16785 0.07513 0.16785 0.16785v0.67419c-0.90222-0.05737-1.6434-0.00446-1.7056 2.4e-4 -0.10938 0.00781-0.19238 0.10449-0.18359 0.21484 0.00781 0.10449 0.0957 0.18457 0.19922 0.18457 0.00488 0 0.00977 0 0.01562-9.8e-4 0.01453-0.00195 0.76837-0.05646 1.6743 0.00256v0.77863c0 0.1817 0.1474 0.22382 0.32916 0.22382 0.18164 0 0.3291-0.04211 0.3291-0.22382v-0.7149c0.73724 0.09509 1.483 0.28223 1.9594 0.6427 0.00165 0.0012 0.00366 0.0021 0.00531 0.0034 0.0011 7.9e-4 0.00214 0.0013 0.0033 0.0021 1.0828 0.81323 2.8757 0.99939 4.2814 0.99841 1.1172 0 1.9902-0.11621 2.0693-0.12695 0.10938-0.01562 0.18555-0.11621 0.1709-0.22559s-0.12207-0.18164-0.22559-0.1709c-0.04047 0.00549-3.7754 0.50232-5.7203-0.57953 3.2748-1.0362 5.6804-0.55701 5.7067-0.55231 0.10645 0.02441 0.21387-0.0459 0.23633-0.1543 0.02344-0.10742-0.0459-0.21387-0.1543-0.23633-0.03461-0.00714-0.32745-0.06592-0.82379-0.10236 0.0011-0.0083 0.0091-0.01337 0.0091-0.02197v-1.3563c0-0.05713 0.04639-0.10345 0.10352-0.10345h1.0288c0.07965 0 0.12946-0.08624 0.08966-0.15521 0 0-0.80701-1.3993-0.81647-1.4141z"/>
 <path class="cls-1" d="m12.067 12.786c-0.19366 0-0.27844-0.0744-0.40698-0.18658-0.14771-0.12909-0.33179-0.28992-0.68323-0.28992-0.3515 0-0.53583 0.16083-0.68384 0.28992-0.12854 0.11218-0.21356 0.18658-0.40778 0.18658-0.19391 0-0.27899-0.0744-0.40753-0.18658-0.14801-0.12909-0.33234-0.28992-0.68408-0.28992-0.35144 0-0.53583 0.16083-0.68378 0.28992-0.12854 0.11218-0.21362 0.18658-0.40784 0.18658-0.19501 0-0.28003-0.0744-0.40918-0.18658-0.14819-0.12909-0.33258-0.28992-0.68457-0.28992-0.35205 0-0.53662 0.16083-0.68488 0.28992-0.12885 0.11218-0.21393 0.18658-0.40863 0.18658-0.11597 0-0.21008 0.09406-0.21008 0.21002s0.09412 0.21008 0.21008 0.21008c0.35199 0 0.53662-0.16083 0.68488-0.28992 0.12885-0.11218 0.21387-0.18652 0.40863-0.18652s0.27979 0.07434 0.40863 0.18652c0.1485 0.12909 0.33289 0.28992 0.68512 0.28992 0.35175 0 0.53613-0.16083 0.68408-0.28992 0.12854-0.11218 0.21362-0.18652 0.40753-0.18652 0.19421 0 0.27924 0.07434 0.40784 0.18652 0.14795 0.12909 0.33228 0.28992 0.68378 0.28992 0.35175 0 0.53607-0.16083 0.68402-0.28992 0.1286-0.11218 0.21362-0.18652 0.40759-0.18652 0.1936 0 0.27838 0.07434 0.40698 0.18652 0.14771 0.12909 0.33173 0.28992 0.68323 0.28992 0.11597 0 0.21002-0.09412 0.21002-0.21008s-0.09406-0.21002-0.21002-0.21002z"/>
 <path class="cls-1" d="m9.2871 4.5653c0.60236 0 1.0906-0.48828 1.0906-1.0906s-0.48828-1.0906-1.0906-1.0906c-0.60229 0-1.0906 0.48828-1.0906 1.0906s0.48828 1.0906 1.0906 1.0906z"/>
</svg>
