<?xml version="1.0" encoding="UTF-8"?>
<svg id="ICONS" width="15.591" height="15.591" version="1.1" xmlns="http://www.w3.org/2000/svg">
 <defs>
  <style>.cls-1{fill:#fff;}.cls-2{fill:#031E3A;}</style>
 </defs>
 <rect class="cls-2" width="15.591" height="15.591" rx="7.7948" ry="7.7948"/>
 <g transform="translate(-.00472)">
  <polygon class="cls-1" points="12.366 8.082 4.5741 10.397 4.8659 9.875 4.6472 9.7526 4.143 10.655 5.0583 11.137 5.1747 10.915 4.645 10.636 12.439 8.321 12.147 8.8448 12.365 8.9676 12.868 8.0641 11.953 7.583 11.838 7.8048"/>
  <path class="cls-1" d="m3.776 9.3432 8.7165-2.59c0.08546-0.0511 0.19044-0.09397 0.2638-0.2105 0.19944-0.31665 0.20665-0.71544 0.09894-1.0779-0.15599-0.52507-0.58245-0.91177-1.1127-1.0092-0.0398-0.00729-0.08067 0.00361-0.11179 0.02971-0.03097 0.02613-0.04871 0.06474-0.04831 0.10524 0.00493 0.44212-0.27942 0.83644-0.69156 0.95897l-6.462 1.92c-0.41214 0.12253-0.86564-0.05255-1.1029-0.42567-0.0217-0.03417-0.05764-0.05685-0.09778-0.06186-0.04039-0.00486-0.08056 0.00837-0.11 0.03622-0.39106 0.37115-0.53714 0.92794-0.38109 1.453 0.08793 0.29613 0.2587 0.55851 0.50833 0.73949 0.22794 0.16519 0.53059 0.1325 0.53059 0.1325z"/>
 </g>
</svg>
