<?xml version="1.0" encoding="UTF-8"?>
<svg width="128.13" height="128.13" version="1.1" xmlns="http://www.w3.org/2000/svg">
 <defs>
  <style>.cls-1{fill:#031E3A;}.cls-2{fill:#fff;}</style>
 </defs>
 <g id="Isolation_Mode" data-name="Isolation Mode">
  <rect class="cls-1" width="128.13" height="128.13" rx="64.06"/>
  <rect class="cls-2" x="35.56" y="66.68" width="59.02" height="5.82" rx="1.82"/>
  <path class="cls-2" d="m105.07 91.08a11.72 11.72 0 0 1-1.1-0.6 14 14 0 0 1-2-1.65c-2.97-2.83-6.97-4.26-11.08-3.22a15.47 15.47 0 0 0-5.18 2.51 24.55 24.55 0 0 1-4.64 3.07 6.24 6.24 0 0 1-3.6 0.46 9.27 9.27 0 0 1-4.22-2.47c-3.14-2.84-6.93-4.55-11.21-3.84a13 13 0 0 0-4.85 2c-1.54 1-2.79 2.37-4.4 3.26a6.92 6.92 0 0 1-7.79-0.53c-1.45-1-2.62-2.34-4.21-3.18a14.52 14.52 0 0 0-5.34-1.58c-4.12-0.4-7.7 1.42-10.53 4.26a7.92 7.92 0 0 1-3.05 2 6.38 6.38 0 0 1-1.6 0.18c-1.67-0.11-3.23 0.42-3.7 2.1a3 3 0 0 0 2.1 3.69 11.7 11.7 0 0 0 6.69-1 15.38 15.38 0 0 0 4.46-3.39 6.25 6.25 0 0 1 3.18-1.73 7.16 7.16 0 0 1 3.73 0.2 11.62 11.62 0 0 1 3.73 2.43 13.56 13.56 0 0 0 10.93 3.26 13.1 13.1 0 0 0 4.94-1.85c1.56-1 2.81-2.34 4.39-3.28a6.26 6.26 0 0 1 3.85-1 5.71 5.71 0 0 1 1.66 0.4 9.07 9.07 0 0 1 2.2 1.34c1.68 1.35 3.14 2.85 5.15 3.73a11.76 11.76 0 0 0 5.57 1.1 14.41 14.41 0 0 0 5.63-1.75c1.7-0.89 3.08-2.18 4.67-3.22a7.75 7.75 0 0 1 4.71-1.56 5.41 5.41 0 0 1 2 0.64 11.52 11.52 0 0 1 2.3 1.82 14.65 14.65 0 0 0 8.64 4 3 3 0 0 0 3-3 2.92 2.92 0 0 0-2.88-3 6.74 6.74 0 0 1-2.15-0.6z"/>
  <path class="cls-2" d="m89.92 81.73a14.63 14.63 0 0 1 3.66-0.46 16.38 16.38 0 0 1 11.14 4.61l0.43 0.4a7.37 7.37 0 0 0 0.93 0.8c0.26 0.16 0.56 0.32 0.79 0.43a3.47 3.47 0 0 0 0.66 0.25 7.6 7.6 0 0 1 2.55 0.65v-11.9a4 4 0 0 0-4.2-4l-2.38 0.14c-12.85 0.84-17.84 5-19.9 12.08a19.1 19.1 0 0 1 6.32-3z"/>
  <path class="cls-2" d="m19.88 87.71h0.93a4.46 4.46 0 0 0 1.31-0.94 17.21 17.21 0 0 1 12.24-5.49c0.5 0 1 0 1.51 0.07a18.16 18.16 0 0 1 6.82 2 18.34 18.34 0 0 1 3.31 2.39c0.46 0.39 0.9 0.77 1.32 1.06l0.14 0.09c-1.77-8.41-6.62-13.32-21.39-14.24-1.9-0.12-3.72-0.2-5.45-0.26a4 4 0 0 0-4.12 4v12a8.3 8.3 0 0 1 3.38-0.68z"/>
  <circle class="cls-2" cx="68.21" cy="21.38" r="4.36"/>
  <path class="cls-2" d="m78.26 40.31-0.12-0.06-5.3-2.51a0.81 0.81 0 0 1-0.36-0.37l-3.8-8.8a3 3 0 0 0-4.08-1.47c-2.71 1.4-6.64 3.4-8.22 4.15-2.52 1.19-2.12 1.85-2.52 2.78s-2.12 5-2.67 6.29a1.83 1.83 0 0 0-0.14 0.32v0.06a1.77 1.77 0 0 0-0.08 0.52 1.94 1.94 0 0 0 3.62 1 1.15 1.15 0 0 0 0.14-0.32l3-6.82a0.57 0.57 0 0 1 0.43-0.33l1.44-0.23a0.14 0.14 0 0 1 0.16 0.16l-3.54 17.66a1.32 1.32 0 0 1-0.24 0.54l-6.52 8.61a2.3523 2.3523 0 0 0 3.43 3.22l10.73-11.85a0.5 0.5 0 0 1 0.63-0.1l2.91 1.73a0.74 0.74 0 0 1 0.36 0.54l1.28 8.07a2.36 2.36 0 1 0 4.72 0 2 2 0 0 0-0.06-0.49l-1.18-11a1 1 0 0 0-0.23-0.55l-4.81-5.8a1.19 1.19 0 0 1-0.25-1l1.16-5.8a0.13 0.13 0 0 1 0.23 0l1.29 2a1 1 0 0 0 0.39 0.33l6.37 3a2 2 0 0 0 0.94 0.25 1.94 1.94 0 0 0 0.89-3.66z"/>
 </g>
</svg>
