<?xml version="1.0" encoding="UTF-8"?>
<svg width="128.13" height="128.13" version="1.1" xmlns="http://www.w3.org/2000/svg">
 <defs>
  <style>.cls-1{fill:#031E3A;}.cls-2{fill:#fff;}</style>
 </defs>
 <g id="Isolation_Mode" data-name="Isolation Mode">
  <rect class="cls-1" width="128.13" height="128.13" rx="64.06"/>
  <path class="cls-2" d="m98.31 88.93-7.65-16.5-1.59-3.43a1.75 1.75 0 0 0-0.21-0.46l-10.4-22.4c-0.93-2-1.86-4-2.8-6-0.84-1.82-3.86-2-5-0.36h-17.52c-1.13-1.58-4.13-1.49-5 0.36l-7.37 16.43h6.54l3.31-7.38 0.19-0.41q2.5 5.41 5 10.83l12.19 26.31 2.8 6a3 3 0 0 0 4.12 1.08 3.08 3.08 0 0 0 1.08-4.07c-0.41-0.89-0.82-1.78-1.24-2.67h15.72l2.64 5.74a3 3 0 0 0 4.11 1 3.08 3.08 0 0 0 1.08-4.07zm-25.2-40.14 2.74 5.91h-5.4q1.34-2.96 2.66-5.91zm-17-2.65-1.23-2.66h14.12l-4.75 10.46a4.19 4.19 0 0 0-0.24 0.76h-3.88zm10 21.62q-2.11-4.65-4.24-9.31h15.72l0.54 1.17c1.26 2.71 2.52 5.43 3.77 8.14h-15.72zm8.13 14.75h-1.24q-2.33-5-4.67-10.08c-0.14-0.3-0.28-0.61-0.43-0.92h15.74l5.1 11z"/>
  <path class="cls-2" d="m59.2 74-0.43-0.92h-33.94c-4.2 0-8.45-0.18-12.64 0h-0.19a1.25 1.25 0 0 0 0 2.5h47.93z"/>
  <path class="cls-2" d="m116.12 73.11h-21.84l1.16 2.5h7.87c4.2 0 8.44 0.19 12.63 0h0.18a1.25 1.25 0 0 0 0-2.5z"/>
  <path class="cls-2" d="m116.12 64.77h-25.71l1.1 2.38a0.67 0.67 0 0 1 0.06 0.12h11.74c4.2 0 8.44 0.19 12.63 0h0.18a1.25 1.25 0 0 0 0-2.5z"/>
  <path class="cls-2" d="m54.91 64.77h-30.08c-4.2 0-8.45-0.18-12.64 0h-0.19a1.25 1.25 0 0 0 0 2.5h44.07z"/>
  <path class="cls-2" d="m25 53.51v30.86c0 3.22 5 3.22 5 0v-30.86c0-3.22-5-3.22-5 0z"/>
  <path class="cls-2" d="m106.8 53.51v30.86c0 3.22 5 3.22 5 0v-30.86c0-3.22-5-3.22-5 0z"/>
  <path class="cls-2" d="m116.12 56.43h-29.58l0.94 2 0.22 0.48h15.61c4.2 0 8.44 0.19 12.63 0h0.18a1.25 1.25 0 0 0 0-2.48z"/>
  <path class="cls-2" d="m50.83 56.43h-26c-4.2 0-8.45-0.18-12.64 0h-0.19a1.25 1.25 0 0 0 0 2.5h40.2l-1.2-2.5z"/>
 </g>
</svg>
