<?xml version="1.0" encoding="UTF-8" standalone="no"?>
<!-- Created with Inkscape (http://www.inkscape.org/) -->

<svg
   version="1.1"
   id="svg2"
   width="305.85199"
   height="307.61334"
   viewBox="0 0 305.85199 307.61334"
   sodipodi:docname="BIKE_FRIENDS_LOGO_RUND_LILLE2.ai"
   xmlns:inkscape="http://www.inkscape.org/namespaces/inkscape"
   xmlns:sodipodi="http://sodipodi.sourceforge.net/DTD/sodipodi-0.dtd"
   xmlns="http://www.w3.org/2000/svg"
   xmlns:svg="http://www.w3.org/2000/svg">
  <defs
     id="defs6">
    <clipPath
       clipPathUnits="userSpaceOnUse"
       id="clipPath16">
      <path
         d="M 0,230.71 H 229.389 V 0 H 0 Z"
         id="path14" />
    </clipPath>
  </defs>
  <sodipodi:namedview
     id="namedview4"
     pagecolor="#ffffff"
     bordercolor="#000000"
     borderopacity="0.25"
     inkscape:showpageshadow="2"
     inkscape:pageopacity="0.0"
     inkscape:pagecheckerboard="0"
     inkscape:deskcolor="#d1d1d1" />
  <g
     id="g8"
     inkscape:groupmode="layer"
     inkscape:label="BIKE_FRIENDS_LOGO_RUND_LILLE2"
     transform="matrix(1.3333333,0,0,-1.3333333,0,307.61333)">
    <g
       id="g10">
      <g
         id="g12"
         clip-path="url(#clipPath16)">
        <g
           id="g18"
           transform="translate(114.3692,9.4324)">
          <path
             d="m 0,0 c 58.228,0 105.431,47.203 105.431,105.431 0,58.228 -47.203,105.431 -105.431,105.431 -58.228,0 -105.431,-47.203 -105.431,-105.431 C -105.431,47.203 -58.228,0 0,0"
             style="fill:#499e64;fill-opacity:1;fill-rule:nonzero;stroke:none"
             id="path20" />
        </g>
        <g
           id="g22"
           transform="translate(156.3573,62.5336)">
          <path
             d="m 0,0 c -10.714,0 -19.429,8.715 -19.429,19.427 0,7.269 4.025,13.877 10.506,17.246 l 0.187,0.097 0.076,-0.198 6.62,-17.598 c 0.321,-0.849 1.142,-1.42 2.048,-1.42 0.258,0 0.519,0.05 0.772,0.143 1.127,0.426 1.7,1.688 1.274,2.817 l -6.687,17.771 0.208,0.05 c 1.494,0.35 2.984,0.527 4.425,0.527 10.714,0 19.431,-8.719 19.431,-19.435 C 19.431,8.715 10.714,0 0,0 m -28.243,64.671 c -1.949,3.026 -6.405,9.911 -6.405,9.911 -0.333,0.517 -0.872,0.871 -1.481,0.972 -0.601,0.099 -1.231,-0.061 -1.711,-0.445 L -50.594,65.004 c -0.866,-0.685 -1.085,-1.913 -0.506,-2.855 0.053,-0.084 12.187,-20.506 12.581,-21.258 2.24,-4.271 1.048,-7.992 -1.253,-14.197 -2.147,-5.794 -4.505,-13.949 -4.766,-14.857 -0.021,-0.073 -0.038,-0.143 -0.053,-0.217 -0.017,-0.071 -0.027,-0.139 -0.032,-0.208 -0.12,-0.972 -0.609,-1.836 -1.371,-2.438 -0.66,-0.523 -1.465,-0.799 -2.308,-0.799 -0.139,0 -0.28,0.007 -0.419,0.021 -0.984,0.114 -1.86,0.605 -2.476,1.38 -0.6,0.763 -0.878,1.711 -0.779,2.678 0.095,0.599 0.952,5.888 2.225,11.166 1.776,7.397 0.588,13.971 -3.262,18.034 -2.577,2.73 -10.64,13.904 -11.076,14.509 l -0.068,0.027 -0.023,0.089 c -2.691,3.348 -5.62,8.813 -5.034,13.23 0.268,2.01 1.224,3.601 2.927,4.865 0.044,0.029 0.078,0.052 0.109,0.078 l 21.02,15.849 c 0.036,0.029 4.366,3.533 8.953,2.981 2.339,-0.28 4.336,-1.555 6.104,-3.898 2.68,-3.55 6.245,-9.039 8.003,-15.033 0.943,-3.233 3.388,-4.792 9.022,-5.748 2.61,-0.445 5.21,-1.014 6.209,-1.235 l 0.047,-0.013 c 1.71,-0.387 3.249,-2.305 2.943,-3.662 -0.204,-0.914 -1.273,-1.721 -2.054,-1.805 -1.056,-0.116 -5.455,0.008 -5.455,0.008 -5.42,0.154 -14.488,0.411 -16.857,2.975 m 13.431,-12.377 -22.864,-4.001 -0.067,0.112 c -2.857,4.897 -8.616,14.376 -8.616,14.376 l 9.345,7.406 0.114,-0.175 c 1.502,-2.324 3.82,-5.912 5.031,-7.796 0.03,-0.048 0.063,-0.097 0.097,-0.143 0.038,-0.048 0.076,-0.097 0.118,-0.143 2.838,-3.342 9.503,-4.113 14.994,-4.408 l 0.12,-0.009 0.044,-0.113 1.905,-5.068 z M -68.063,19.427 C -68.063,8.715 -76.78,0 -87.494,0 c -10.712,0 -19.429,8.715 -19.429,19.427 0,10.716 8.717,19.435 19.429,19.435 2.888,0 5.67,-0.622 8.266,-1.848 l 0.187,-0.088 -9.591,-16.062 c -0.62,-1.035 -0.28,-2.381 0.754,-2.999 1.035,-0.619 2.381,-0.278 2.998,0.757 l 9.537,15.963 0.168,-0.139 c 4.52,-3.715 7.112,-9.189 7.112,-15.019 M 0,43.236 c -1.962,0 -3.984,-0.269 -6.013,-0.8 l -0.165,-0.043 -0.061,0.158 -5.556,14.773 0.324,-0.006 3.123,-0.102 c 0.466,-0.01 1.603,-0.019 2.891,0.123 2.735,0.297 5.248,2.53 5.847,5.193 0.916,4.071 -2.537,8.049 -6.237,8.886 -0.573,0.13 -3.502,0.788 -6.496,1.296 -5.029,0.855 -5.333,1.9 -5.556,2.665 -1.947,6.629 -5.811,12.6 -8.715,16.441 -2.495,3.306 -5.558,5.192 -9.106,5.609 -6.528,0.75 -12.084,-3.845 -12.139,-3.892 l -20.855,-15.72 c -0.028,-0.019 -0.043,-0.028 -0.057,-0.04 -2.742,-1.993 -4.347,-4.646 -4.779,-7.893 -0.809,-6.111 2.764,-12.166 4.966,-15.232 l 0.074,-0.101 -0.065,-0.105 -8.216,-13.755 -0.156,0.078 c -3.295,1.637 -6.843,2.467 -10.547,2.467 -13.125,0 -23.803,-10.68 -23.803,-23.809 0,-13.125 10.678,-23.801 23.803,-23.801 13.126,0 23.805,10.676 23.805,23.801 0,7.417 -3.376,14.281 -9.263,18.839 l -0.132,0.103 7.387,12.366 0.166,-0.227 c 2.645,-3.612 7.373,-9.977 9.343,-12.061 3.997,-4.22 2.857,-11.201 2.181,-14.005 -1.37,-5.7 -2.255,-11.296 -2.293,-11.532 l -0.012,-0.084 c -0.249,-2.171 0.351,-4.276 1.687,-5.963 1.338,-1.694 3.256,-2.761 5.399,-3.009 2.14,-0.259 4.254,0.35 5.948,1.692 1.631,1.289 2.688,3.133 2.977,5.187 0.107,0.375 2.488,8.658 4.629,14.442 2.202,5.935 4.281,11.542 1.024,17.747 -0.171,0.329 -0.375,0.704 -0.596,1.104 l -0.129,0.232 0.259,0.047 22.09,3.862 2.748,-7.297 -0.154,-0.074 c -8.249,-4.045 -13.375,-12.235 -13.375,-21.369 0,-13.125 10.68,-23.801 23.805,-23.801 13.127,0 23.807,10.676 23.807,23.801 0,13.129 -10.68,23.809 -23.807,23.809"
             style="fill:#ffffff;fill-opacity:1;fill-rule:nonzero;stroke:none"
             id="path24" />
        </g>
        <g
           id="g26"
           transform="translate(134.7809,172.7969)">
          <path
             d="m 0,0 c 1.825,3.738 5.702,6.155 9.876,6.155 1.668,0 3.28,-0.375 4.791,-1.113 5.432,-2.657 7.693,-9.235 5.04,-14.669 -1.901,-3.885 -5.815,-6.15 -9.88,-6.15 -1.612,0 -3.247,0.358 -4.791,1.11 -2.63,1.285 -4.602,3.519 -5.554,6.289 C -1.471,-5.607 -1.287,-2.632 0,0 m 3.116,-18.597 c 2.114,-1.032 4.37,-1.555 6.707,-1.555 5.822,0 11.233,3.363 13.797,8.57 l 0.017,0.036 c 3.71,7.6 0.547,16.803 -7.05,20.518 -7.598,3.71 -16.804,0.55 -20.517,-7.05 -1.797,-3.683 -2.054,-7.845 -0.722,-11.72 1.329,-3.877 4.087,-7.001 7.768,-8.799"
             style="fill:#ffffff;fill-opacity:1;fill-rule:nonzero;stroke:none"
             id="path28" />
        </g>
      </g>
    </g>
  </g>
</svg>
