<?xml version="1.0" encoding="UTF-8"?>
<svg version="1.1" xmlns="http://www.w3.org/2000/svg" width="879" height="879">
<path d="M0 0 C1.16354004 0.16097168 2.32708008 0.32194336 3.52587891 0.48779297 C76.64169499 10.67020963 152.33153511 39.76578305 209.25 87.5234375 C210.26271973 88.36745117 210.26271973 88.36745117 211.29589844 89.22851562 C212.56339143 90.29647823 213.81769655 91.38036967 215.05566406 92.48242188 C216.93970494 94.14189075 216.93970494 94.14189075 220 96 C222.0103103 95.73587196 224.01053557 95.39133412 226 95 C228.36126666 94.91102229 230.72470447 94.87213777 233.08764648 94.87060547 C233.7697821 94.86885315 234.45191772 94.86710083 235.15472412 94.86529541 C237.39354043 94.86092011 239.63227673 94.86379992 241.87109375 94.8671875 C243.43758662 94.86651314 245.00407939 94.86554201 246.5705719 94.86428833 C249.84792073 94.86281714 253.12524224 94.864947 256.40258789 94.86962891 C260.58981475 94.87532111 264.77697743 94.87204673 268.96420193 94.86605644 C272.19766212 94.86243116 275.43110728 94.86359853 278.66456795 94.86618423 C280.20783559 94.86684831 281.75110463 94.86604335 283.29437065 94.86370468 C285.45726985 94.8611463 287.6200673 94.86506351 289.78295898 94.87060547 C291.01062485 94.87140106 292.23829071 94.87219666 293.50315857 94.87301636 C297.10381907 95.00377007 300.47373811 95.24516801 304 96 C306 99 306 99 305.96484375 101.6328125 C304.63148858 106.2860601 302.21812843 109.86078223 299.5625 113.875 C298.46569347 115.57001987 297.36934666 117.2653373 296.2734375 118.9609375 C295.72268555 119.80624023 295.17193359 120.65154297 294.60449219 121.52246094 C292.25305553 125.15337683 289.96894304 128.82486275 287.6875 132.5 C283.82834014 138.6903353 279.93155538 144.85531741 276 151 C276.64324219 151.72960937 277.28648437 152.45921875 277.94921875 153.2109375 C278.86336306 154.26442575 279.77598915 155.31923238 280.6875 156.375 C281.17935791 156.94065674 281.67121582 157.50631348 282.17797852 158.08911133 C285.1015157 161.5244395 287.73652505 165.02182364 290.203125 168.80078125 C295.45341224 177.57888119 295.45341224 177.57888119 303.38671875 183.44921875 C306.56247228 183.95146296 306.56247228 183.95146296 309.5390625 183.8046875 C312 184 312 184 313.84375 185.8203125 C315.49082651 188.92527431 314.96882246 190.678323 314 194 C313.0344851 195.35851343 312.0391022 196.69690967 311 198 C311.57161865 198.92389526 311.57161865 198.92389526 312.15478516 199.86645508 C345.84396614 254.55727219 368.1794225 313.24285273 377 377 C377.16226074 378.07459473 377.32452148 379.14918945 377.49169922 380.25634766 C383.02419896 417.6820812 382.64520285 458.6138453 377 496 C376.83902832 497.16354004 376.67805664 498.32708008 376.51220703 499.52587891 C365.52055162 578.45251117 332.31351597 653.97965234 281.42236328 715.2734375 C280.17922023 716.78245014 278.96050954 718.31152349 277.74609375 719.84375 C264.30658348 736.7770229 248.57287852 753.09820813 232 767 C230.95442962 767.90735883 229.91029925 768.81637826 228.8671875 769.7265625 C221.13119318 776.45803703 213.22892226 782.8793507 205 789 C204.34580078 789.49081055 203.69160156 789.98162109 203.01757812 790.48730469 C191.10913984 799.39366231 178.77033181 807.38868436 166 815 C165.16130371 815.5038623 164.32260742 816.00772461 163.45849609 816.52685547 C140.09545684 830.4973983 115.53139847 841.61841359 90 851 C89.01563965 851.36432129 88.0312793 851.72864258 87.01708984 852.10400391 C58.97538609 862.34511285 29.52867927 868.91481089 0 873 C-1.07459473 873.16226074 -2.14918945 873.32452148 -3.25634766 873.49169922 C-40.6820812 879.02419896 -81.6138453 878.64520285 -119 873 C-120.16354004 872.83902832 -121.32708008 872.67805664 -122.52587891 872.51220703 C-201.45251117 861.52055162 -276.97965234 828.31351597 -338.2734375 777.42236328 C-339.78245014 776.17922023 -341.31152349 774.96050954 -342.84375 773.74609375 C-359.7770229 760.30658348 -376.09820813 744.57287852 -390 728 C-390.90735883 726.95442962 -391.81637826 725.91029925 -392.7265625 724.8671875 C-399.45803703 717.13119318 -405.8793507 709.22892226 -412 701 C-412.73621582 700.01870117 -412.73621582 700.01870117 -413.48730469 699.01757812 C-422.39366231 687.10913984 -430.38868436 674.77033181 -438 662 C-438.5038623 661.16130371 -439.00772461 660.32260742 -439.52685547 659.45849609 C-453.4973983 636.09545684 -464.61841359 611.53139847 -474 586 C-474.54648193 584.52345947 -474.54648193 584.52345947 -475.10400391 583.01708984 C-485.34511285 554.97538609 -491.91481089 525.52867927 -496 496 C-496.24339111 494.38810791 -496.24339111 494.38810791 -496.49169922 492.74365234 C-502.02419896 455.3179188 -501.64520285 414.3861547 -496 377 C-495.83902832 375.83645996 -495.67805664 374.67291992 -495.51220703 373.47412109 C-484.52055162 294.54748883 -451.31351597 219.02034766 -400.42236328 157.7265625 C-399.17922023 156.21754986 -397.96050954 154.68847651 -396.74609375 153.15625 C-383.30658348 136.2229771 -367.57287852 119.90179187 -351 106 C-349.95442962 105.09264117 -348.91029925 104.18362174 -347.8671875 103.2734375 C-340.13119318 96.54196297 -332.22892226 90.1206493 -324 84 C-323.34580078 83.50918945 -322.69160156 83.01837891 -322.01757812 82.51269531 C-310.10913984 73.60633769 -297.77033181 65.61131564 -285 58 C-284.16130371 57.4961377 -283.32260742 56.99227539 -282.45849609 56.47314453 C-259.09545684 42.5026017 -234.53139847 31.38158641 -209 22 C-207.52345947 21.45351807 -207.52345947 21.45351807 -206.01708984 20.89599609 C-177.97538609 10.65488715 -148.52867927 4.08518911 -119 0 C-117.38810791 -0.24339111 -117.38810791 -0.24339111 -115.74365234 -0.49169922 C-78.3179188 -6.02419896 -37.3861547 -5.64520285 0 0 Z " fill="#479A61" transform="translate(499,3)"/>
<path d="M0 0 C7.81154943 6.87226114 14.30759032 14.63820242 20.00390625 23.3203125 C20.51783936 24.09858398 21.03177246 24.87685547 21.5612793 25.67871094 C26.46489448 33.18991891 30.92161236 40.90118621 35.12890625 48.8203125 C35.44698242 49.41263672 35.76505859 50.00496094 36.09277344 50.61523438 C41.45417934 60.66576958 45.93760763 71.19101566 49.0859375 82.15234375 C50.22444617 85.06470862 50.71616223 85.75509209 53.50390625 87.0078125 C61.28865721 90.38399482 69.70665325 91.78024684 78.00390625 93.3203125 C78.68098633 93.44631836 79.35806641 93.57232422 80.05566406 93.70214844 C83.31464191 94.30612289 86.57415869 94.89764582 89.83984375 95.46484375 C101.00661321 97.57247904 112.15855296 101.3034568 119.12890625 110.8203125 C124.01349698 119.18660889 126.80621668 126.71578104 124.515625 136.41796875 C121.6977939 144.44940804 116.50916502 150.24638109 109.00390625 154.2578125 C103.95090685 156.67587874 98.60181822 156.94646153 93.07421875 156.91796875 C91.965625 156.91474609 90.85703125 156.91152344 89.71484375 156.90820312 C88.57273437 156.89982422 87.430625 156.89144531 86.25390625 156.8828125 C85.08859375 156.87830078 83.92328125 156.87378906 82.72265625 156.86914062 C79.8580198 156.85740031 76.99348992 156.8409782 74.12890625 156.8203125 C74.57693604 157.99311768 75.02496582 159.16592285 75.48657227 160.37426758 C77.18561114 164.8227329 78.88316472 169.27176389 80.58032227 173.72094727 C81.30812191 175.62832286 82.03629793 177.5355549 82.76489258 179.44262695 C87.63994816 192.2039008 92.43726426 204.99042973 97.12890625 217.8203125 C97.90057129 217.68028809 98.67223633 217.54026367 99.46728516 217.39599609 C117.07455426 214.41622333 137.25694028 213.1109927 154.12890625 219.8203125 C154.78101074 220.07232422 155.43311523 220.32433594 156.10498047 220.58398438 C183.87440606 231.44433652 202.94499269 250.65088965 215.37890625 277.5703125 C225.53380372 302.54137186 224.46379795 328.97901236 214.31445312 353.72851562 C211.53314832 360.21486167 208.36204908 366.15125779 204.12890625 371.8203125 C203.50242187 372.6659375 202.8759375 373.5115625 202.23046875 374.3828125 C186.23952721 395.11415174 162.67062551 409.88570955 136.46484375 413.5390625 C108.39741146 415.9054034 81.27906893 409.84395754 59.37890625 391.5078125 C39.57308056 374.29737646 25.53053925 350.29757512 23.12890625 323.8203125 C22.47523612 312.10766292 22.95047385 301.17975352 26.12890625 289.8203125 C26.51175781 288.26183594 26.51175781 288.26183594 26.90234375 286.671875 C33.83021739 260.93069311 51.42345919 241.2241274 73.8203125 227.65625 C77.12890625 225.8203125 77.12890625 225.8203125 79.12890625 225.8203125 C78.02626789 222.65311164 76.92151246 219.48665303 75.81640625 216.3203125 C75.50767578 215.4334375 75.19894531 214.5465625 74.88085938 213.6328125 C73.44247865 209.51450138 71.98147897 205.41665664 70.3984375 201.3515625 C69.12890625 197.8203125 69.12890625 197.8203125 69.12890625 194.8203125 C68.5913269 194.9175209 68.05374756 195.01472931 67.49987793 195.11488342 C44.60456532 199.25403273 21.70901853 203.39317278 -1.20556641 207.42453003 C-2.93732894 207.7294198 -4.6689381 208.03518203 -6.40039062 208.34182739 C-8.79512899 208.76561504 -11.19042804 209.18606489 -13.5859375 209.60546875 C-14.28673935 209.73002441 -14.9875412 209.85458008 -15.70957947 209.98291016 C-18.47883909 210.46425949 -21.05304328 210.8203125 -23.87109375 210.8203125 C-23.47277344 211.64273438 -23.07445312 212.46515625 -22.6640625 213.3125 C-11.79264329 236.21918865 -13.53017694 256.15786311 -21.87109375 279.6953125 C-22.47166581 281.3558273 -23.07330435 283.01595662 -23.67578125 284.67578125 C-26.30499814 291.95428415 -28.75407088 299.29248861 -31.203125 306.63311768 C-31.9723102 308.93658816 -32.74581252 311.23857649 -33.51953125 313.54052734 C-37.42317443 325.20670389 -41.09902566 336.94134698 -44.20703125 348.84765625 C-47.18562645 360.2337108 -51.06089158 369.36463794 -61.6328125 375.63671875 C-62.37144531 376.02730469 -63.11007812 376.41789062 -63.87109375 376.8203125 C-64.49628906 377.15933594 -65.12148438 377.49835938 -65.765625 377.84765625 C-72.53661342 380.94092886 -80.60960654 380.96021649 -87.71875 379.05859375 C-97.54534042 375.3087787 -105.1096354 369.22999303 -110.30859375 360.0078125 C-117.55213136 340.97764131 -108.31979136 314.23478485 -103.515625 295.37109375 C-99.21003746 278.41287872 -97.78318942 258.45114783 -106.49609375 242.6953125 C-109.39480626 238.20445002 -112.84295318 234.3813367 -116.4765625 230.4765625 C-120.36289869 226.16545547 -123.81177446 221.52511224 -127.30322266 216.89453125 C-129.14514364 214.45775755 -130.99791423 212.0294269 -132.8515625 209.6015625 C-138.88652157 201.69566248 -144.91750826 193.78777515 -150.87109375 185.8203125 C-153.87513011 189.40884838 -156.3176041 193.07855948 -158.6640625 197.125 C-159.01189789 197.72191147 -159.35973328 198.31882294 -159.71810913 198.93382263 C-160.83518607 200.8522619 -161.94685181 202.77377768 -163.05859375 204.6953125 C-164.20344904 206.66381698 -165.34977889 208.63145729 -166.4962616 210.59901428 C-167.24800958 211.88923699 -167.99932582 213.17971135 -168.75019836 214.47044373 C-171.60784453 219.3801577 -174.50090946 224.26748989 -177.43359375 229.1328125 C-177.79670654 229.73528809 -178.15981934 230.33776367 -178.53393555 230.95849609 C-179.31162724 232.24659095 -180.09107969 233.53362264 -180.87109375 234.8203125 C-178.45938303 237.24909728 -176.04157766 239.66014358 -173.546875 242.00390625 C-154.66646841 260.0105089 -143.04820938 284.0881364 -142.3828125 310.31982422 C-142.2754038 340.11231239 -152.41673709 364.67715955 -172.93359375 386.3203125 C-192.55392075 405.42857053 -218.23766864 414.52340304 -245.37133789 414.2956543 C-273.2782521 413.44344517 -297.47392742 400.74716257 -316.65234375 380.94921875 C-336.40916641 358.47888187 -342.20602443 331.48261158 -341.10498047 302.22070312 C-339.4041854 277.49348625 -324.71200475 254.70583005 -306.74023438 238.42773438 C-291.79315862 225.5735616 -270.77908599 215.69041706 -250.87109375 214.8203125 C-249.23914063 214.72556641 -249.23914063 214.72556641 -247.57421875 214.62890625 C-229.84681883 214.07714983 -212.73383048 217.88894413 -196.87109375 225.8203125 C-196.48195801 224.7691626 -196.48195801 224.7691626 -196.08496094 223.69677734 C-194.7604228 220.55805885 -193.17549261 217.7340832 -191.44921875 214.796875 C-191.11213394 214.22201859 -190.77504913 213.64716217 -190.42774963 213.05488586 C-189.70401303 211.82231797 -188.97858528 210.59074178 -188.25161743 209.3600769 C-187.11096973 207.42816548 -185.97637752 205.49279325 -184.8425293 203.55688477 C-181.16532408 197.29495727 -177.43384623 191.07766167 -173.5625 184.93359375 C-172.90668945 183.88671387 -172.25087891 182.83983398 -171.57519531 181.76123047 C-170.33473396 179.79166987 -169.08058426 177.83065002 -167.81152344 175.87939453 C-167.26012695 175.0026709 -166.70873047 174.12594727 -166.140625 173.22265625 C-165.40743042 172.08558228 -165.40743042 172.08558228 -164.65942383 170.92553711 C-163.61676379 168.82851395 -163.61676379 168.82851395 -164.609375 166.73730469 C-165.02574219 166.10469727 -165.44210937 165.47208984 -165.87109375 164.8203125 C-166.82048828 163.29857422 -166.82048828 163.29857422 -167.7890625 161.74609375 C-168.15314209 161.16947998 -168.51722168 160.59286621 -168.89233398 159.9987793 C-172.72276068 153.87025695 -176.03531295 147.68572872 -178.80859375 141.0078125 C-179.09049561 140.33983643 -179.37239746 139.67186035 -179.6628418 138.98364258 C-183.21670003 130.09845344 -184.21691231 121.33609211 -184.18359375 111.8203125 C-184.19970703 110.89992188 -184.21582031 109.97953125 -184.23242188 109.03125 C-184.24131771 96.39916556 -179.78306686 85.81944759 -171.18359375 76.5703125 C-164.49744688 70.18757061 -156.77964088 64.99737814 -149.30371094 59.59472656 C-145.65728894 56.9349318 -142.07328976 54.19716596 -138.49609375 51.4453125 C-137.81208496 50.92026123 -137.12807617 50.39520996 -136.42333984 49.85424805 C-134.99675982 48.7588678 -133.57049738 47.66307382 -132.14453125 46.56689453 C-120.49967078 37.62066044 -108.83579072 28.70431259 -96.96972656 20.05249023 C-92.87408723 17.0609336 -88.82791129 14.02345858 -84.8359375 10.89453125 C-59.80168881 -8.62162178 -28.44879959 -21.59786418 0 0 Z " fill="#F5F6F5" transform="translate(491.87109375,262.1796875)"/>
<path d="M0 0 C2.07371789 1.72612328 3.97381921 3.53176888 5.86328125 5.45703125 C6.42402344 6.0190625 6.98476563 6.58109375 7.5625 7.16015625 C24.00550231 24.79134754 36.58331417 49.79879775 43.69799805 72.66186523 C46.32508992 80.75966488 50.44472621 86.00772812 57.9296875 90.125 C69.30527013 95.29021129 82.41576899 96.88091374 94.60864258 99.26367188 C112.67298326 102.86230947 112.67298326 102.86230947 117.7890625 109.4921875 C119.77499519 113.12463892 119.58860248 115.36885703 118.86328125 119.45703125 C116.86297861 122.22796892 115.29066733 124.14104403 111.85073853 124.90255737 C109.36775807 125.07058262 106.93342304 125.07081369 104.4453125 125.015625 C103.06235489 125.01348747 103.06235489 125.01348747 101.65145874 125.01130676 C98.65869787 124.99867623 95.66806349 124.94833823 92.67578125 124.89453125 C90.61955697 124.8730976 88.5633228 124.85259243 86.50708008 124.83300781 C44.17325123 124.32553327 44.17325123 124.32553327 26.86328125 118.45703125 C26.0125 118.20179688 25.16171875 117.9465625 24.28515625 117.68359375 C16.33638438 114.43182344 12.49727225 105.81612249 8.28808594 98.80615234 C5.97530363 94.99299413 3.54376165 91.25834478 1.11328125 87.51953125 C0.65663086 86.81280273 0.19998047 86.10607422 -0.27050781 85.37792969 C-5.64845289 76.47801727 -5.64845289 76.47801727 -12.13671875 68.45703125 C-15.95433833 67.82679313 -19.60635694 67.6678909 -23.1015625 69.47021484 C-25.04527067 70.94001352 -26.83984751 72.49846594 -28.63671875 74.14453125 C-30.03164087 75.35022168 -31.42885064 76.55326958 -32.828125 77.75390625 C-33.53855957 78.37201172 -34.24899414 78.99011719 -34.98095703 79.62695312 C-38.40122945 82.53050488 -41.98479363 85.20526244 -45.57421875 87.89453125 C-53.67772419 94.02394965 -61.54094053 100.42643469 -69.32666016 106.95361328 C-70.51050861 107.93690689 -71.70522334 108.9072994 -72.91162109 109.86279297 C-75.64833994 112.04710156 -77.05920563 113.26324846 -78.38671875 116.58203125 C-78.13161581 120.53612686 -77.5369374 121.95360405 -75.640625 125.30859375 C-75.09325684 126.28103027 -74.54588867 127.2534668 -73.98193359 128.25537109 C-70.62068512 134.0875241 -67.23920423 139.90623271 -63.82421875 145.70703125 C-63.05885637 147.00981006 -62.2935574 148.31262611 -61.52832031 149.61547852 C-57.17944659 157.01420947 -52.80033393 164.39362563 -48.3671875 171.7421875 C-44.88168215 177.53081876 -41.45268849 183.35333156 -38.02490234 189.17626953 C-35.43557193 193.57469914 -32.83645674 197.96529594 -30.1875 202.328125 C-29.73366943 203.08174316 -29.27983887 203.83536133 -28.81225586 204.61181641 C-27.98031268 205.99208932 -27.14188129 207.36848536 -26.29516602 208.73974609 C-20.05246143 219.15186297 -18.10472975 230.10809939 -20.69335938 242.01806641 C-22.57122459 249.19197712 -24.96767621 256.20395633 -27.36950684 263.21624756 C-28.21893983 265.69717305 -29.06332622 268.17978488 -29.90722656 270.66259766 C-35.23985562 286.34000051 -35.23985562 286.34000051 -37.76782227 293.63574219 C-42.77077703 308.11017598 -47.2834026 322.62915224 -50.94921875 337.50390625 C-52.65879301 341.7553475 -55.30017337 344.26889144 -59.1171875 346.73828125 C-63.38348215 348.25665304 -67.70530901 348.17682238 -72.13671875 347.45703125 C-75.9428567 345.43923826 -78.32057373 342.76996019 -80.57421875 339.14453125 C-82.32205582 330.79375415 -80.4621658 322.58691046 -78.85723877 314.36248779 C-78.44045677 312.2245863 -78.03667443 310.08449927 -77.63427734 307.94384766 C-76.28660434 300.85721432 -74.77243067 293.85479829 -72.92456055 286.87939453 C-70.40719605 277.20492634 -69.67454565 267.86741072 -69.63671875 257.89453125 C-69.63043457 256.65751465 -69.62415039 255.42049805 -69.61767578 254.14599609 C-69.88686876 234.71444497 -76.14303069 220.36448823 -88.90625 206.1328125 C-94.10670583 200.30685609 -98.71438412 194.0081104 -103.40087891 187.76806641 C-105.20771047 185.3625154 -107.02152114 182.96233399 -108.8359375 180.5625 C-116.10192624 170.93286509 -123.25964577 161.23290721 -130.2734375 151.41796875 C-131.94275463 149.08825641 -133.63822036 146.81655931 -135.40625 144.55859375 C-147.68866371 128.8119095 -154.96306452 109.50484972 -153.13671875 89.45703125 C-150.1580735 79.37238029 -142.23810547 72.98283781 -134.01171875 67.01953125 C-132.5982277 65.97755291 -131.18550746 64.93452837 -129.7734375 63.890625 C-129.02497559 63.33874512 -128.27651367 62.78686523 -127.50537109 62.21826172 C-123.24480126 59.05028081 -119.03909667 55.81039069 -114.82421875 52.58203125 C-107.37764302 46.89088358 -99.8714318 41.29091334 -92.31030273 35.75317383 C-86.28220124 31.32762997 -80.32685119 26.8122688 -74.38671875 22.26953125 C-72.61736782 20.92163826 -70.8478407 19.57397652 -69.078125 18.2265625 C-66.05478931 15.92442137 -63.04238601 13.60940199 -60.0390625 11.28125 C-43.36305966 -1.48934056 -19.73422075 -14.25048848 0 0 Z " fill="#479A61" transform="translate(479.13671875,275.54296875)"/>
<path d="M0 0 C1.43907715 0.00628418 1.43907715 0.00628418 2.90722656 0.01269531 C14.43077872 0.19474807 24.72028452 2.5328826 35.25 7.3125 C34.66813419 11.49965204 33.25597635 14.33088247 31.03125 17.90625 C30.35408936 19.00565918 29.67692871 20.10506836 28.97924805 21.23779297 C28.61616547 21.81994568 28.25308289 22.40209839 27.8789978 23.00189209 C25.94162017 26.10892317 24.02846169 29.23081787 22.11328125 32.3515625 C21.71518753 32.99900421 21.31709381 33.64644592 20.90693665 34.31350708 C16.09662819 42.15684839 11.46964587 50.10717449 6.84814453 58.06274414 C6.14920735 59.26589852 5.44962561 60.46867874 4.74934387 61.67105103 C3.8294433 63.2508781 2.91205773 64.83216887 1.99487305 66.41357422 C0.74259405 68.49410602 -0.57637706 70.53503973 -1.9362793 72.546875 C-4.5986451 76.60654384 -4.36441836 78.55075769 -3.75 83.3125 C-2.41666667 85.97916667 -2.41666667 85.97916667 0.25 87.3125 C3.02988279 87.85936219 5.50208587 88.04241469 8.25 87.3125 C11.53172478 84.42979595 13.59614109 81.33527921 15.76171875 77.5625 C16.08745377 77.00008102 16.41318878 76.43766205 16.74879456 75.85820007 C17.45082169 74.64512244 18.15015579 73.43048305 18.8470459 72.21444702 C20.71635946 68.95402978 22.60694903 65.7059852 24.49609375 62.45703125 C24.88511871 61.78702591 25.27414368 61.11702057 25.67495728 60.42671204 C29.86186039 53.23094628 34.16957941 46.11004279 38.5 39 C38.8554892 38.41549072 39.21097839 37.83098145 39.57723999 37.22875977 C43.42832888 30.89803103 47.30688389 24.58633397 51.25 18.3125 C65.02610575 24.90472499 74.06972903 42.5046812 78.99072266 56.40478516 C85.71267262 77.82566677 82.51407098 99.37331786 72.7578125 119.37109375 C68.35726722 127.46683375 62.71160463 133.84147612 56.25 140.3125 C55.59257812 140.98152344 54.93515625 141.65054688 54.2578125 142.33984375 C44.0722916 151.97893112 31.54564461 156.75171242 18.25 160.3125 C17.64269043 160.49063232 17.03538086 160.66876465 16.40966797 160.85229492 C1.65913244 163.99549631 -16.04395896 162.54251865 -29.75 156.3125 C-30.37616211 156.03374023 -31.00232422 155.75498047 -31.64746094 155.46777344 C-51.88056744 146.26349375 -66.1681885 130.71712628 -74.75 110.3125 C-82.43112783 89.37674304 -81.94310623 66.00674408 -72.53125 45.68359375 C-61.31498216 24.45631492 -43.61312201 9.54616412 -20.75 2.3125 C-13.81809586 0.53095648 -7.1420166 -0.04297851 0 0 Z " fill="#479A61" transform="translate(248.75,495.6875)"/>
<path d="M0 0 C1.94608306 1.40572197 3.75264256 2.89265958 5.56640625 4.46484375 C6.35144531 5.09648438 7.13648438 5.728125 7.9453125 6.37890625 C21.73922112 17.96157761 32.58540454 36.38370086 34.56640625 54.46484375 C35.90090012 79.97455653 31.81799188 102.0524066 14.37890625 121.58984375 C1.39224746 135.5668585 -16.84231889 146.31881707 -36.22583008 147.65771484 C-50.49834349 148.03599204 -63.21161631 148.2937289 -76.43359375 142.46484375 C-77.03945313 142.20783691 -77.6453125 141.95083008 -78.26953125 141.68603516 C-87.12060743 137.88371366 -94.32673656 132.92033596 -101.43359375 126.46484375 C-102.06652344 125.92472656 -102.69945312 125.38460937 -103.3515625 124.828125 C-116.26688343 113.09498448 -125.65689016 93.11011032 -126.57568359 75.78564453 C-127.37660932 50.96507811 -122.05616458 30.46998307 -105.43359375 11.46484375 C-99.36930596 5.18397425 -92.36576697 -0.76044487 -84.43359375 -4.53515625 C-83.44359375 -4.20515625 -82.45359375 -3.87515625 -81.43359375 -3.53515625 C-80.24687146 -1.07083827 -79.25845264 1.30527939 -78.31640625 3.86328125 C-78.02271149 4.63344574 -77.72901672 5.40361023 -77.42642212 6.19711304 C-76.45966477 8.74073946 -75.50928406 11.29017363 -74.55859375 13.83984375 C-73.89324899 15.59705728 -73.22689775 17.35389003 -72.55957031 19.11035156 C-69.20426968 27.96592701 -65.91822048 36.84653754 -62.66015625 45.73828125 C-62.36372223 46.5449826 -62.06728821 47.35168396 -61.76187134 48.18283081 C-60.34894284 52.0283436 -58.94469342 55.87648918 -57.55908203 59.73193359 C-57.05398773 61.11696295 -56.54863151 62.50189683 -56.04296875 63.88671875 C-55.60952148 65.0890918 -55.17607422 66.29146484 -54.72949219 67.53027344 C-53.54450023 70.21369532 -52.74120637 71.70892652 -50.43359375 73.46484375 C-47.36588594 74.14279023 -44.5144577 74.05432313 -41.43359375 73.46484375 C-38.48357887 71.01848995 -37.54704424 69.5970796 -37.16503906 65.78466797 C-37.49627456 61.68999495 -38.7746626 58.24476523 -40.29296875 54.47265625 C-40.59377853 53.70136383 -40.89458832 52.93007141 -41.20451355 52.13540649 C-41.85222881 50.47782729 -42.50449217 48.82201945 -43.16085815 47.16784668 C-44.19140061 44.57016504 -45.20989215 41.96806354 -46.22485352 39.36425781 C-47.26395774 36.69871155 -48.30367152 34.03342674 -49.34693909 31.36950684 C-52.48046865 23.36810339 -55.55593072 15.34577074 -58.58337402 7.3036499 C-59.36014223 5.24388402 -60.14333729 3.1866376 -60.92675781 1.12939453 C-61.39178711 -0.10568848 -61.85681641 -1.34077148 -62.3359375 -2.61328125 C-62.74320068 -3.6899707 -63.15046387 -4.76666016 -63.57006836 -5.87597656 C-64.43359375 -8.53515625 -64.43359375 -8.53515625 -64.43359375 -11.53515625 C-42.77490012 -19.14003463 -18.60415667 -11.73584843 0 0 Z " fill="#479A61" transform="translate(660.43359375,509.53515625)"/>
<path d="M0 0 C0.68184357 -0.00175232 1.36368713 -0.00350464 2.06619263 -0.00531006 C4.31588299 -0.00970389 6.56549441 -0.00679829 8.81518555 -0.00341797 C10.3845369 -0.00409195 11.95388814 -0.00506277 13.52323914 -0.00631714 C16.81254063 -0.00779096 20.10181495 -0.00565053 23.39111328 -0.00097656 C27.59409163 0.00470643 31.79700591 0.00144881 35.99998188 -0.00454903 C39.2420245 -0.00817518 42.48405211 -0.00700638 45.7260952 -0.00442123 C47.27494502 -0.00375691 48.82379623 -0.004563 50.37264442 -0.00690079 C52.54534087 -0.00945954 54.71793603 -0.00554103 56.890625 0 C58.12432327 0.00079559 59.35802155 0.00159119 60.62910461 0.00241089 C64.23459581 0.13283805 67.60855473 0.37310784 71.1394043 1.12939453 C73.1394043 4.12939453 73.1394043 4.12939453 73.10424805 6.76220703 C71.77089287 11.41545464 69.35753273 14.99017676 66.7019043 19.00439453 C65.60509777 20.69941441 64.50875095 22.39473183 63.4128418 24.09033203 C62.58671387 25.35828613 62.58671387 25.35828613 61.74389648 26.65185547 C59.39245982 30.28277136 57.10834734 33.95425728 54.8269043 37.62939453 C50.96774443 43.81972983 47.07095968 49.98471194 43.1394043 56.12939453 C43.78264648 56.85900391 44.42588867 57.58861328 45.08862305 58.34033203 C46.00276735 59.39382028 46.91539345 60.44862691 47.8269043 61.50439453 C48.31876221 62.07005127 48.81062012 62.63570801 49.31738281 63.21850586 C52.24092 66.65383403 54.87592935 70.15121817 57.3425293 73.93017578 C62.59281653 82.70827572 62.59281653 82.70827572 70.52612305 88.57861328 C73.70187657 89.08085749 73.70187657 89.08085749 76.6784668 88.93408203 C79.1394043 89.12939453 79.1394043 89.12939453 80.9831543 90.94580078 C82.62374249 94.04407375 82.12344922 95.82581513 81.1394043 99.12939453 C79.8269043 101.06689453 79.8269043 101.06689453 78.1394043 102.12939453 C75.9519043 101.81689453 75.9519043 101.81689453 74.1394043 101.12939453 C73.8919043 101.68626953 73.6444043 102.24314453 73.3894043 102.81689453 C71.39137605 106.51324679 68.80434299 109.46558477 65.83862305 112.42626953 C63.07061657 115.19828181 60.40400293 118.04879359 57.7644043 120.94189453 C57.28181152 121.46887939 56.79921875 121.99586426 56.30200195 122.53881836 C53.66276446 125.42926464 51.06579555 128.34821966 48.5144043 131.31689453 C45.94982287 134.29651692 43.21635192 137.02289048 40.3894043 139.75439453 C37.05934542 143.01695222 35.14899248 145.90925934 33.1394043 150.12939453 C31.48092252 151.14291117 29.81274469 152.14060248 28.1394043 153.12939453 C26.40451259 154.91424386 24.82125406 156.79615546 23.2175293 158.69970703 C21.25697053 160.99193927 19.23293755 163.21188926 17.17895508 165.42041016 C10.25251594 172.87045654 3.35133367 180.3545078 -1.8605957 189.12939453 C-4.78384314 192.31057556 -7.98224479 195.10904476 -11.2355957 197.94189453 C-14.73582546 201.03405153 -17.8357658 204.23641374 -20.84887695 207.79736328 C-23.44745708 210.80969791 -26.15238403 213.7157696 -28.8605957 216.62939453 C-32.15144926 220.17825505 -35.42939817 223.73123222 -38.6105957 227.37939453 C-39.13911133 227.98267578 -39.66762695 228.58595703 -40.2121582 229.20751953 C-41.45688158 230.65871362 -42.67665909 232.13135653 -43.8840332 233.61376953 C-44.57754883 234.44392578 -45.27106445 235.27408203 -45.9855957 236.12939453 C-46.91758789 237.27408203 -46.91758789 237.27408203 -47.8684082 238.44189453 C-49.8605957 240.12939453 -49.8605957 240.12939453 -52.4777832 240.50439453 C-54.8605957 240.12939453 -54.8605957 240.12939453 -56.8605957 238.12939453 C-57.53731326 233.39237161 -56.1563282 230.62782335 -54.01489258 226.47998047 C-51.87573387 222.12384256 -50.1745165 217.58958402 -48.4230957 213.06689453 C-47.83214111 211.54986938 -47.83214111 211.54986938 -47.22924805 210.00219727 C-44.59700865 203.18733273 -42.14948663 196.34306347 -39.9309082 189.38330078 C-37.24563465 181.21967717 -33.81946189 173.50484478 -30.17700195 165.72705078 C-27.86460506 160.68960705 -26.0137835 155.72765538 -24.56005859 150.37597656 C-23.64221463 147.4279835 -22.31122014 144.81084934 -20.82543945 142.11376953 C-19.57044501 139.53264737 -18.75109432 136.85479689 -17.8605957 134.12939453 C-18.45750214 134.13383575 -19.05440857 134.13827698 -19.66940308 134.14285278 C-25.86575941 134.18700034 -32.06207128 134.21722512 -38.25854492 134.23925781 C-40.5730165 134.24933345 -42.88747529 134.26299428 -45.2019043 134.28027344 C-48.52306263 134.30445318 -51.84405311 134.31586183 -55.1652832 134.32470703 C-56.20490204 134.3350296 -57.24452087 134.34535217 -58.31564331 134.35598755 C-59.27648834 134.35613861 -60.23733337 134.35628967 -61.22729492 134.35644531 C-62.07556854 134.36088654 -62.92384216 134.36532776 -63.79782104 134.36990356 C-65.8605957 134.12939453 -65.8605957 134.12939453 -67.8605957 132.12939453 C-68.48279999 127.02731934 -67.08419411 124.0657454 -64.5480957 119.69189453 C-62.02321847 115.22128695 -59.79736756 110.87448557 -57.8605957 106.12939453 C-57.3862207 105.20126953 -56.9118457 104.27314453 -56.4230957 103.31689453 C-55.18892197 100.79918012 -54.16727871 98.36630515 -53.1730957 95.75439453 C-51.33009865 91.03260751 -49.10553021 86.57250804 -46.7980957 82.06689453 C-43.95125039 76.50331211 -41.72261795 71.10746596 -39.8605957 65.12939453 C-38.87870383 63.45199591 -37.879258 61.78472076 -36.8605957 60.12939453 C-36.16923935 58.25285586 -35.47965116 56.37561004 -34.8059082 54.49267578 C-33.67060775 51.65442464 -32.3138124 48.97642546 -30.9230957 46.25439453 C-29.09697405 42.67358875 -27.40919894 39.13770708 -25.9855957 35.37939453 C-23.94082532 30.06127325 -21.3693259 25.0462119 -18.79833984 19.96923828 C-14.05014719 10.85096741 -14.05014719 10.85096741 -10.8605957 1.12939453 C-7.21925614 -0.01063038 -3.79996637 0.00245529 0 0 Z " fill="#F6C103" transform="translate(731.860595703125,97.87060546875)"/>
<path d="M0 0 C0.73863281 0.57363281 1.47726562 1.14726562 2.23828125 1.73828125 C3.17607422 2.42857422 3.17607422 2.42857422 4.1328125 3.1328125 C16.31057223 12.67159947 23.92808537 28.67427669 26.23828125 43.73828125 C27.91564514 61.23670703 22.35169859 78.58415975 12.0703125 92.71875 C1.37923572 105.22636372 -14.62701431 114.22978758 -31.0859375 115.98632812 C-48.27556153 117.2024462 -63.76659558 113.68741327 -77.34375 102.63671875 C-79.89746596 100.40843886 -82.34512888 98.11411918 -84.76171875 95.73828125 C-85.41269531 95.10019531 -86.06367187 94.46210938 -86.734375 93.8046875 C-99.46112452 80.35069515 -102.36586862 63.14266902 -102.10546875 45.3828125 C-101.45016802 29.07947637 -92.89176401 16.10597872 -81.76171875 4.73828125 C-81.24351562 4.18398437 -80.7253125 3.6296875 -80.19140625 3.05859375 C-58.85760943 -17.60503144 -22.91227031 -17.06543897 0 0 Z " fill="#489A62" transform="translate(603.76171875,166.26171875)"/>
<path d="M0 0 C0.73863281 0.57363281 1.47726562 1.14726562 2.23828125 1.73828125 C3.17607422 2.42857422 3.17607422 2.42857422 4.1328125 3.1328125 C16.31057223 12.67159947 23.92808537 28.67427669 26.23828125 43.73828125 C27.91564514 61.23670703 22.35169859 78.58415975 12.0703125 92.71875 C1.37923572 105.22636372 -14.62701431 114.22978758 -31.0859375 115.98632812 C-48.27556153 117.2024462 -63.76659558 113.68741327 -77.34375 102.63671875 C-79.89746596 100.40843886 -82.34512888 98.11411918 -84.76171875 95.73828125 C-85.41269531 95.10019531 -86.06367187 94.46210938 -86.734375 93.8046875 C-99.46112452 80.35069515 -102.36586862 63.14266902 -102.10546875 45.3828125 C-101.45016802 29.07947637 -92.89176401 16.10597872 -81.76171875 4.73828125 C-81.24351562 4.18398437 -80.7253125 3.6296875 -80.19140625 3.05859375 C-58.85760943 -17.60503144 -22.91227031 -17.06543897 0 0 Z M-74.9375 24.3125 C-82.34909437 34.16817474 -84.7266933 44.58563304 -83.76171875 56.73828125 C-81.83733085 68.6153628 -77.24583429 79.5327237 -67.7109375 87.1875 C-56.22113472 95.07211915 -45.96912301 99.13626382 -31.76171875 97.73828125 C-17.83065536 94.6132838 -6.59109291 87.93156887 1.23828125 75.73828125 C7.92070749 64.43279284 9.44368084 50.98044417 6.3984375 38.21875 C1.30753783 25.14010876 -7.21348677 15.71037759 -19.70703125 9.59765625 C-40.1941152 1.02891391 -60.94290095 7.9533911 -74.9375 24.3125 Z " fill="#F5F6F5" transform="translate(603.76171875,166.26171875)"/>
<path d="M0 0 C3.66810788 1.22270263 4.05083709 2.2253 6.0390625 5.453125 C6.90289551 6.83854492 6.90289551 6.83854492 7.78417969 8.25195312 C8.39165039 9.24130859 8.99912109 10.23066406 9.625 11.25 C10.89193654 13.26643774 12.16016226 15.28206607 13.4296875 17.296875 C15.08259072 19.933546 16.73429087 22.57070483 18.37207031 25.21679688 C23.14638285 32.88215604 27.59207975 38.2416209 36 42 C36.84949219 42.38542969 37.69898438 42.77085937 38.57421875 43.16796875 C43.60692247 45.30282163 48.64382688 46.92489111 54 48 C54.84691406 48.17402344 55.69382812 48.34804688 56.56640625 48.52734375 C63.43803701 49.80817833 70.24147568 50.35615552 77.21264648 50.65844727 C84.36141556 50.98342909 84.36141556 50.98342909 87 52 C88.09667969 53.70239258 88.09667969 53.70239258 88.921875 55.89453125 C89.37626953 57.08079102 89.37626953 57.08079102 89.83984375 58.29101562 C90.29037109 59.53915039 90.29037109 59.53915039 90.75 60.8125 C91.22373047 62.04323242 91.22373047 62.04323242 91.70703125 63.29882812 C93.16240897 67.18298555 94 69.77497694 94 74 C92.80665039 74.20044922 91.61330078 74.40089844 90.38378906 74.60742188 C84.67191592 75.56801164 78.96084212 76.53330125 73.25 77.5 C72.20644348 77.676521 71.16288696 77.85304199 70.08770752 78.03491211 C58.13198017 80.06054001 46.18517501 82.12548175 34.2578125 84.3125 C33.24932251 84.49735962 32.24083252 84.68221924 31.20178223 84.87268066 C26.36774817 85.76087762 21.53522304 86.6566474 16.70410156 87.56054688 C14.95638729 87.88415285 13.20866631 88.20772256 11.4609375 88.53125 C10.67341095 88.68086182 9.8858844 88.83047363 9.07449341 88.98461914 C0.76183211 90.5165774 0.76183211 90.5165774 -2 90 C-3.85839844 87.88989258 -3.85839844 87.88989258 -5.609375 84.89453125 C-6.27388672 83.77884766 -6.93839844 82.66316406 -7.62304688 81.51367188 C-8.33251363 80.28022525 -9.04148588 79.04649408 -9.75 77.8125 C-10.48865924 76.55571353 -11.22891771 75.29986574 -11.97070312 74.04492188 C-13.52775863 71.40375647 -15.07348906 68.75640203 -16.61132812 66.10400391 C-18.9977476 61.99295648 -21.42594255 57.90755531 -23.859375 53.82421875 C-25.0292388 51.85464924 -26.19794974 49.88440333 -27.36584473 47.91366577 C-28.11949078 46.64203507 -28.87396159 45.3708928 -29.62927246 44.10025024 C-30.68527067 42.31991552 -31.73426036 40.53564361 -32.78125 38.75 C-33.38001953 37.73421875 -33.97878906 36.7184375 -34.59570312 35.671875 C-35.79870514 33.38299216 -36.54011775 31.52484375 -37 29 C-29.1856981 22.61662871 -21.36416388 16.24369487 -13.4375 10 C-12.8914209 9.56840576 -12.3453418 9.13681152 -11.78271484 8.69213867 C-10.1978659 7.44869765 -8.60063895 6.22302512 -7 5 C-6.08371826 4.27876953 -6.08371826 4.27876953 -5.14892578 3.54296875 C-3.49086608 2.28150546 -1.74930691 1.13153741 0 0 Z " fill="#489A62" transform="translate(459,366)"/>
<path d="M0 0 C2.99357214 1.31768518 4.8026279 2.62394041 6.84765625 5.16796875 C7.36561768 5.80718262 7.8835791 6.44639648 8.41723633 7.10498047 C8.96017334 7.79221191 9.50311035 8.47944336 10.0625 9.1875 C10.62670654 9.89277832 11.19091309 10.59805664 11.7722168 11.32470703 C15.70537287 16.27626466 19.54693847 21.29495603 23.3125 26.375 C23.78631104 27.01074951 24.26012207 27.64649902 24.74829102 28.30151367 C28 32.75638546 28 32.75638546 28 35 C12.82 35 -2.36 35 -18 35 C-16.67804466 30.37315632 -15.65344525 26.89280741 -13.5625 22.75 C-13.15128906 21.91984375 -12.74007812 21.0896875 -12.31640625 20.234375 C-11 18 -11 18 -9.54541016 16.58374023 C-7.94508769 14.94372572 -7.01290109 13.45097422 -5.95703125 11.42578125 C-5.60576172 10.75869141 -5.25449219 10.09160156 -4.89257812 9.40429688 C-4.53615234 8.71400391 -4.17972656 8.02371094 -3.8125 7.3125 C-3.44447266 6.61060547 -3.07644531 5.90871094 -2.69726562 5.18554688 C-1.7932106 3.45962365 -0.89593399 1.73015281 0 0 Z " fill="#4B9B60" transform="translate(772,153)"/>
<path d="M0 0 C0.68184357 -0.00175232 1.36368713 -0.00350464 2.06619263 -0.00531006 C4.31588299 -0.00970389 6.56549441 -0.00679829 8.81518555 -0.00341797 C10.3845369 -0.00409195 11.95388814 -0.00506277 13.52323914 -0.00631714 C16.81254063 -0.00779096 20.10181495 -0.00565053 23.39111328 -0.00097656 C27.59409163 0.00470643 31.79700591 0.00144881 35.99998188 -0.00454903 C39.2420245 -0.00817518 42.48405211 -0.00700638 45.7260952 -0.00442123 C47.27494502 -0.00375691 48.82379623 -0.004563 50.37264442 -0.00690079 C52.54534087 -0.00945954 54.71793603 -0.00554103 56.890625 0 C58.12432327 0.00079559 59.35802155 0.00159119 60.62910461 0.00241089 C64.23459581 0.13283805 67.60855473 0.37310784 71.1394043 1.12939453 C73.1394043 4.12939453 73.1394043 4.12939453 73.10424805 6.76220703 C71.77090439 11.41541446 69.35761162 14.99025664 66.7019043 19.00439453 C65.60636356 20.69678665 64.5113196 22.38950043 63.41674805 24.08251953 C62.86615723 24.9275 62.31556641 25.77248047 61.74829102 26.64306641 C59.37119911 30.31655715 57.0682981 34.03474749 54.7644043 37.75439453 C51.32373473 43.28207226 47.81343162 48.75276918 44.1394043 54.12939453 C43.02919259 50.30801364 43.29541373 48.73355791 45.1394043 45.12939453 C46.67382812 42.69057521 48.21030577 40.27489835 50.1394043 38.12939453 C50.7994043 38.12939453 51.4594043 38.12939453 52.1394043 38.12939453 C52.2219043 37.57251953 52.3044043 37.01564453 52.3894043 36.44189453 C53.1394043 34.12939453 53.1394043 34.12939453 55.1394043 31.69189453 C57.24000494 29.00049996 57.59151835 27.41671021 58.1394043 24.12939453 C59.1294043 23.63439453 59.1294043 23.63439453 60.1394043 23.12939453 C60.6344043 21.64439453 60.6344043 21.64439453 61.1394043 20.12939453 C61.7994043 20.12939453 62.4594043 20.12939453 63.1394043 20.12939453 C63.1394043 19.13939453 63.1394043 18.14939453 63.1394043 17.12939453 C63.7994043 17.12939453 64.4594043 17.12939453 65.1394043 17.12939453 C65.3250293 16.23220703 65.3250293 16.23220703 65.5144043 15.31689453 C66.1394043 13.12939453 66.1394043 13.12939453 68.1394043 10.12939453 C68.1394043 8.14939453 68.1394043 6.16939453 68.1394043 4.12939453 C41.7394043 3.79939453 15.3394043 3.46939453 -11.8605957 3.12939453 C-10.8605957 1.12939453 -10.8605957 1.12939453 -9.22688293 0.51248169 C-6.12663159 0.01057031 -3.14168011 0.00202995 0 0 Z " fill="#F1E4A2" transform="translate(731.860595703125,97.87060546875)"/>
<path d="M0 0 C0.33 0.66 0.66 1.32 1 2 C0.34 3.65 -0.32 5.3 -1 7 C14.18 7 29.36 7 45 7 C45 6.34 45 5.68 45 5 C49.50206785 4.82344832 52.98974995 4.82300712 57 7 C59 10 59 10 58.8125 13 C57.99790027 16.00775285 57.4044979 17.11821903 55 19 C54.01 18.67 53.02 18.34 52 18 C52.33 16.68 52.66 15.36 53 14 C53.66 14 54.32 14 55 14 C54.505 12.02 54.505 12.02 54 10 C35.52 9.67 17.04 9.34 -2 9 C-3 5 -3 5 -1.5625 2.25 C-1.046875 1.5075 -0.53125 0.765 0 0 Z " fill="#D4BD29" transform="translate(755,181)"/>
<path d="M0 0 C0.93065133 2.60582371 1.14917407 3.64198224 0.0625 6.25 C-0.4634375 7.11625 -0.4634375 7.11625 -1 8 C0.32 8 1.64 8 3 8 C2 11 2 11 1 13 C15.85 13 30.7 13 46 13 C46.495 15.475 46.495 15.475 47 18 C46.505 16.515 46.505 16.515 46 15 C45.40309357 15.00444122 44.80618713 15.00888245 44.19119263 15.01345825 C37.99483629 15.05760581 31.79852442 15.08783059 25.60205078 15.10986328 C23.28757921 15.11993892 20.97312041 15.13359975 18.65869141 15.15087891 C15.33753307 15.17505865 12.0165426 15.1864673 8.6953125 15.1953125 C7.65569366 15.20563507 6.61607483 15.21595764 5.54495239 15.22659302 C4.58410736 15.22674408 3.62326233 15.22689514 2.63330078 15.22705078 C1.78502716 15.231492 0.93675354 15.23593323 0.06277466 15.24050903 C-2 15 -2 15 -4 13 C-4.77233468 7.46493477 -2.88941312 4.514708 0 0 Z " fill="#EBC318" transform="translate(668,217)"/>
<path d="M0 0 C10.41342925 -0.02312359 20.82685244 -0.04091517 31.24030209 -0.05181217 C36.07516827 -0.05704097 40.91001694 -0.06413854 45.74487305 -0.07543945 C50.4067712 -0.08626847 55.06865246 -0.09227686 59.73056221 -0.09487724 C61.51324288 -0.09673147 63.29592259 -0.10035203 65.07859612 -0.10573006 C67.5666596 -0.11294069 70.05465243 -0.11399093 72.54272461 -0.11352539 C73.28718842 -0.11712067 74.03165222 -0.12071594 74.79867554 -0.12442017 C79.88594784 -0.11405216 79.88594784 -0.11405216 81 1 C81.47058824 6.41176471 81.47058824 6.41176471 79.5 8.875 C79.005 9.24625 78.51 9.6175 78 10 C78 7.36 78 4.72 78 2 C52.26 1.67 26.52 1.34 0 1 C0 0.67 0 0.34 0 0 Z " fill="#ECD054" transform="translate(722,100)"/>
<path d="M0 0 C26.07 0 52.14 0 79 0 C79 0.33 79 0.66 79 1 C53.59 1 28.18 1 2 1 C1.34 2.65 0.68 4.3 0 6 C-0.66 6 -1.32 6 -2 6 C-1.34 4.02 -0.68 2.04 0 0 Z " fill="#EBC31D" transform="translate(721,101)"/>
<path d="M0 0 C0.33 0 0.66 0 1 0 C1.33 2.64 1.66 5.28 2 8 C17.18 8 32.36 8 48 8 C48 8.33 48 8.66 48 9 C41.34313186 9.0505916 34.68631306 9.0856876 28.02929688 9.10986328 C25.76332751 9.11993859 23.49737119 9.13359918 21.23144531 9.15087891 C17.97978499 9.17506011 14.72829613 9.18646763 11.4765625 9.1953125 C9.94994492 9.21079636 9.94994492 9.21079636 8.39248657 9.22659302 C7.45166229 9.22674408 6.51083801 9.22689514 5.54150391 9.22705078 C4.29574081 9.23371262 4.29574081 9.23371262 3.02481079 9.24050903 C1 9 1 9 -1 7 C-1.1875 3.9375 -1.1875 3.9375 -1 1 C-0.67 0.67 -0.34 0.34 0 0 Z " fill="#C2BD43" transform="translate(665,223)"/>
<path d="M0 0 C1.42223027 3.78657487 0.52894135 6.14930069 -0.8125 9.875 C-1.16957031 10.88304687 -1.52664063 11.89109375 -1.89453125 12.9296875 C-2.25933594 13.94289063 -2.62414062 14.95609375 -3 16 C-3.67177583 17.99828969 -4.33921607 19.99804869 -5 22 C-5.9375 24.8125 -5.9375 24.8125 -7 27 C-7.99 27.33 -8.98 27.66 -10 28 C-8.02491023 17.96189669 -4.30537436 9.25740574 0 0 Z " fill="#C3B941" transform="translate(701,265)"/>
<path d="M0 0 C1.95554944 6.41140851 -1.39914513 12.14807655 -4 18 C-4.33 18.86625 -4.66 19.7325 -5 20.625 C-6.10624102 23.25232242 -7.48462067 25.58916925 -9 28 C-10 26 -10 26 -9.1796875 23.1640625 C-8.53386719 21.41222656 -8.53386719 21.41222656 -7.875 19.625 C-7.64852783 19.00737793 -7.42205566 18.38975586 -7.1887207 17.75341797 C-4.96730867 11.7637989 -2.52535017 5.86740934 0 0 Z " fill="#D1B82E" transform="translate(688,299)"/>
<path d="M0 0 C0.99 0.33 1.98 0.66 3 1 C1.38989473 5.07376031 -1.53822271 7.76507069 -4.625 10.75 C-5.140625 11.25660156 -5.65625 11.76320312 -6.1875 12.28515625 C-7.45383339 13.52803902 -8.7263144 14.76465276 -10 16 C-10.99 15.67 -11.98 15.34 -13 15 C-9.83369776 11.10997153 -6.54978865 7.54978865 -3 4 C-1.97186389 2.68824014 -0.95915568 1.3630107 0 0 Z " fill="#74A758" transform="translate(806,199)"/>
<path d="M0 0 C1.10844919 3.32534757 0.84454356 5.62182575 0 9 C1.65 9 3.3 9 5 9 C4.67 8.01 4.34 7.02 4 6 C4.99 6 5.98 6 7 6 C6.67 5.01 6.34 4.02 6 3 C6.66 2.67 7.32 2.34 8 2 C8.99 2.33 9.98 2.66 11 3 C9.55481219 6.3721049 7.87649547 8.69880363 5 11 C2.375 11.375 2.375 11.375 0 11 C-2 9 -2 9 -2.25 6.0625 C-2 3 -2 3 0 0 Z " fill="#E7C319" transform="translate(677,327)"/>
<path d="M0 0 C4.50206785 -0.17655168 7.98974995 -0.17699288 12 2 C14 5 14 5 13.8125 8 C12.99644717 11.01311815 12.49699674 12.20216235 10 14 C9.34 14 8.68 14 8 14 C8.66 12.68 9.32 11.36 10 10 C10.66 10 11.32 10 12 10 C12 8.02 12 6.04 12 4 C6.06 3.01 6.06 3.01 0 2 C0 1.34 0 0.68 0 0 Z " fill="#F2E799" transform="translate(800,186)"/>
<path d="M0 0 C0.33 0 0.66 0 1 0 C1.88229454 5.73491451 -0.49896975 8.76938812 -3.6875 13.2421875 C-4.120625 13.82226562 -4.55375 14.40234375 -5 15 C-6.11446301 11.19960097 -5.79584021 9.59168042 -4 6 C-2.7295036 3.95950578 -1.40568804 1.94982535 0 0 Z " fill="#F0CD54" transform="translate(781,137)"/>
<path d="M0 0 C3.47914941 -0.02887814 6.95826831 -0.04675687 10.4375 -0.0625 C11.92733398 -0.07506836 11.92733398 -0.07506836 13.44726562 -0.08789062 C14.39150391 -0.09111328 15.33574219 -0.09433594 16.30859375 -0.09765625 C17.62041626 -0.10551147 17.62041626 -0.10551147 18.95874023 -0.11352539 C21 0 21 0 22 1 C22.47058824 6.41176471 22.47058824 6.41176471 20.5 8.875 C20.005 9.24625 19.51 9.6175 19 10 C19 7.36 19 4.72 19 2 C12.73 1.67 6.46 1.34 0 1 C0 0.67 0 0.34 0 0 Z " fill="#E9CB49" transform="translate(781,100)"/>
<path d="M0 0 C0.6875 1.6875 0.6875 1.6875 1 4 C0.02065076 5.67888441 -0.98343919 7.34338239 -2 9 C-2.81865444 11.64829778 -3.40261499 14.28879113 -4 17 C-4.99 17 -5.98 17 -7 17 C-5.34608232 10.77274933 -3.44240996 5.46037442 0 0 Z " fill="#C6BC38" transform="translate(701,145)"/>
<path d="M0 0 C1.4370809 -0.05422947 2.87475462 -0.09289723 4.3125 -0.125 C5.11300781 -0.14820313 5.91351562 -0.17140625 6.73828125 -0.1953125 C9 0 9 0 12 2 C12.5 4.9375 12.5 4.9375 12 8 C9.5 9.875 9.5 9.875 7 11 C7.33 9.68 7.66 8.36 8 7 C8.66 7 9.32 7 10 7 C9.67 5.68 9.34 4.36 9 3 C4.545 2.01 4.545 2.01 0 1 C0 0.67 0 0.34 0 0 Z " fill="#E8C830" transform="translate(800,188)"/>
<path d="M0 0 C0.33 0 0.66 0 1 0 C1.1875 2.8125 1.1875 2.8125 1 6 C-0.375 7.5625 -0.375 7.5625 -2 9 C-3.19027984 11.59915538 -3.19027984 11.59915538 -4 14 C-4.66 14 -5.32 14 -6 14 C-2.99633316 4.22210581 -2.99633316 4.22210581 0 0 Z " fill="#E0C229" transform="translate(718,108)"/>
<path d="M0 0 C0.91058531 3.07322544 1.08886184 5.80097361 1 9 C2.32 9.66 3.64 10.32 5 11 C2.625 11.125 2.625 11.125 0 11 C-2 9 -2 9 -2.25 6.0625 C-2 3 -2 3 0 0 Z " fill="#BABB4D" transform="translate(677,327)"/>
<path d="M0 0 C0.33 0 0.66 0 1 0 C1.125 5.75 1.125 5.75 0 8 C0.66 8.33 1.32 8.66 2 9 C0.02 9.99 -1.96 10.98 -4 12 C-3.52309796 10.37433394 -3.04340334 8.74948689 -2.5625 7.125 C-2.29566406 6.22007812 -2.02882813 5.31515625 -1.75390625 4.3828125 C-1 2 -1 2 0 0 Z " fill="#DABD28" transform="translate(679,192)"/>
<path d="M0 0 C1 2 1 2 0.25 4.3125 C-1.00173326 7.00372652 -2.42139202 9.48857821 -4 12 C-5 10 -5 10 -4.51171875 7.87109375 C-4.23972656 7.06800781 -3.96773437 6.26492188 -3.6875 5.4375 C-3.42324219 4.63183594 -3.15898438 3.82617188 -2.88671875 2.99609375 C-2 1 -2 1 0 0 Z " fill="#D9BC27" transform="translate(683,315)"/>
<path d="M0 0 C0.33 0.66 0.66 1.32 1 2 C0.22265625 3.7265625 0.22265625 3.7265625 -0.9375 5.625 C-1.618125 6.73875 -2.29875 7.8525 -3 9 C-4.43088528 6.13822943 -3.59991697 4.06624227 -3 1 C-2.01 0.67 -1.02 0.34 0 0 Z " fill="#D0BA33" transform="translate(766,162)"/>
<path d="M0 0 C0.33 0 0.66 0 1 0 C1.25 2.25 1.25 2.25 1 5 C-1 7.3125 -1 7.3125 -3 9 C-3 7.35 -3 5.7 -3 4 C-2.34 4 -1.68 4 -1 4 C-0.67 2.68 -0.34 1.36 0 0 Z " fill="#EDD15A" transform="translate(785,132)"/>
</svg>
