<?xml version="1.0" encoding="UTF-8"?>
<svg xmlns="http://www.w3.org/2000/svg" viewBox="0 0 15.59 15.59">
  <defs>
    <style>
      .cls-1 {
        fill: #071f39;
      }

      .cls-1, .cls-2 {
        stroke-width: 0px;
      }

      .cls-2 {
        fill: #fff;
      }
    </style>
  </defs>
  <g id="Cirkel">
    <rect class="cls-1" x="0" y="0" width="15.59" height="15.59" rx="7.8" ry="7.8"/>
  </g>
  <g id="ICONS">
    <path class="cls-2" d="M8.86,3.98c-.38-.05-.78-.08-1.19-.08,0,0-.02,0-.03,0,0,0,0,0-.01,0-.01,0-.03,0-.04,0-1.8.02-3.36.54-4.34,1.36-1.05.74-1.7,1.73-1.7,2.81,0,2.28,2.85,4.14,6.36,4.14s6.36-1.86,6.36-4.14c0-2.07-2.36-3.79-5.42-4.09ZM5.48,4.97c.74-.21,1.56-.34,2.43-.34.16,0,.32,0,.48.01,1.7.19,3.02,1,3.02,1.93,0,1.07-1.73,1.98-3.78,1.98s-3.78-.9-3.78-1.98c0-.66.65-1.25,1.63-1.61ZM3.18,6.41c0,.06-.03.11-.03.17,0,1.5,1.97,2.68,4.48,2.68s4.48-1.18,4.48-2.68c0-.11-.03-.22-.05-.33.26.33.41.69.41,1.07,0,1.47-2.2,2.72-4.8,2.72s-4.8-1.24-4.8-2.72c0-.32.12-.62.31-.91ZM7.91,11.51c-3.12,0-5.66-1.54-5.66-3.44,0-.03,0-.06,0-.09.48,1.59,2.68,2.76,5.41,2.76,3.09,0,5.51-1.5,5.51-3.42,0-.22-.04-.44-.1-.65.32.43.49.9.49,1.4,0,1.9-2.54,3.44-5.66,3.44Z"/>
  </g>
</svg>