<?xml version="1.0" encoding="UTF-8" standalone="no"?>
<!-- Created with Inkscape (http://www.inkscape.org/) -->

<svg
   version="1.1"
   id="svg2"
   width="305.85199"
   height="307.61334"
   viewBox="0 0 305.85199 307.61334"
   sodipodi:docname="HIKE_FRIENDS_LOGO_RUND_LILLE2.ai"
   xmlns:inkscape="http://www.inkscape.org/namespaces/inkscape"
   xmlns:sodipodi="http://sodipodi.sourceforge.net/DTD/sodipodi-0.dtd"
   xmlns="http://www.w3.org/2000/svg"
   xmlns:svg="http://www.w3.org/2000/svg">
  <defs
     id="defs6">
    <clipPath
       clipPathUnits="userSpaceOnUse"
       id="clipPath16">
      <path
         d="M 0,230.71 H 229.389 V 0 H 0 Z"
         id="path14" />
    </clipPath>
  </defs>
  <sodipodi:namedview
     id="namedview4"
     pagecolor="#ffffff"
     bordercolor="#000000"
     borderopacity="0.25"
     inkscape:showpageshadow="2"
     inkscape:pageopacity="0.0"
     inkscape:pagecheckerboard="0"
     inkscape:deskcolor="#d1d1d1" />
  <g
     id="g8"
     inkscape:groupmode="layer"
     inkscape:label="HIKE_FRIENDS_LOGO_RUND_LILLE2"
     transform="matrix(1.3333333,0,0,-1.3333333,0,307.61333)">
    <g
       id="g10">
      <g
         id="g12"
         clip-path="url(#clipPath16)">
        <g
           id="g18"
           transform="translate(115.0793,9.5314)">
          <path
             d="m 0,0 c 58.228,0 105.431,47.203 105.431,105.431 0,58.228 -47.203,105.431 -105.431,105.431 -58.228,0 -105.431,-47.203 -105.431,-105.431 C -105.431,47.203 -58.228,0 0,0"
             style="fill:#f6a000;fill-opacity:1;fill-rule:nonzero;stroke:none"
             id="path20" />
        </g>
        <g
           id="g22"
           transform="translate(114.4376,160.6323)">
          <path
             d="m 0,0 h 0.036 c 3.914,0 7.588,1.472 10.348,4.147 2.778,2.691 4.284,6.268 4.24,10.072 -0.092,7.914 -6.471,14.089 -14.535,14.089 -0.034,0.001 -0.077,0.001 -0.113,0 -8.054,0 -14.423,-6.146 -14.512,-14.012 -0.045,-3.858 1.453,-7.465 4.217,-10.157 C -7.588,1.48 -3.923,0.01 0,0 m -6.815,20.987 c 1.888,1.784 4.426,2.762 7.164,2.762 0.044,0 0.089,-10e-4 0.136,-10e-4 5.032,-0.06 9.288,-4.452 9.293,-9.591 C 9.783,8.87 5.485,4.707 -0.008,4.681 h -0.047 c -2.539,0 -4.941,0.967 -6.77,2.725 -1.898,1.822 -2.936,4.247 -2.924,6.827 0.014,2.582 1.054,4.98 2.934,6.754"
             style="fill:#ffffff;fill-opacity:1;fill-rule:nonzero;stroke:none"
             id="path24" />
        </g>
        <g
           id="g26"
           transform="translate(158.3822,140.4643)">
          <path
             d="m 0,0 c -1.194,0.563 -1.419,1.313 -1.395,2.34 0.144,5.866 0.233,11.832 0.318,17.601 0.027,1.785 -0.855,2.871 -2.358,2.909 -0.712,0.024 -1.267,-0.176 -1.699,-0.575 -0.538,-0.496 -0.832,-1.285 -0.848,-2.279 L -6.057,15.618 C -6.136,11.076 -6.213,6.535 -6.259,1.994 -6.27,0.963 -6.685,0.406 -7.693,0.076 l -1.436,-0.47 c -3.678,-1.206 -7.482,-2.453 -11.174,-3.797 -2.863,-1.041 -5.045,-0.519 -7.071,1.696 -2.893,3.163 -5.888,6.338 -8.786,9.407 -2.38,2.524 -4.763,5.047 -7.117,7.594 -2.567,2.777 -5.588,4.14 -9.234,4.166 -0.673,0.005 -1.346,0.014 -2.02,0.023 -1.932,0.028 -3.929,0.054 -5.882,-0.027 -11.693,-0.499 -22.243,-8.37 -25.656,-19.143 -1.618,-5.117 -3.319,-10.588 -5.195,-16.729 l -0.101,-0.327 c -0.345,-1.119 -0.7,-2.277 -0.769,-3.404 -0.134,-2.139 0.629,-4.148 2.143,-5.66 1.716,-1.71 4.293,-2.677 7.043,-2.598 1.972,0.039 3.964,0.031 5.894,0.02 0.87,-0.005 1.736,-0.01 2.593,-0.01 h 0.256 l 0.138,-0.207 c 0.038,-0.061 0.073,-0.107 0.101,-0.144 0.075,-0.097 0.167,-0.218 0.181,-0.39 0.251,-2.961 1.192,-5.481 2.879,-7.704 0.375,-0.493 0.306,-1.253 0.262,-1.556 -1.059,-6.756 -2.13,-13.508 -3.237,-20.255 -0.17,-1.038 -0.346,-2.096 -0.914,-2.895 -3.468,-4.882 -7.281,-10.136 -11.657,-16.062 -1.57,-2.126 -1.971,-4.726 -1.103,-7.134 0.859,-2.383 2.824,-4.166 5.391,-4.894 3.228,-0.914 6.618,0.165 8.62,2.756 1.397,1.806 2.784,3.622 4.169,5.438 2.504,3.279 5.092,6.67 7.711,9.955 2.602,3.257 4.449,6.416 5.647,9.658 0.822,2.218 1.78,4.423 2.711,6.555 0.394,0.906 0.789,1.812 1.174,2.72 0.126,0.297 0.266,0.592 0.426,0.929 l 0.458,0.972 0.463,-0.319 c 1.123,-0.776 2.232,-1.547 3.331,-2.312 2.788,-1.939 5.42,-3.77 8.143,-5.572 1.564,-1.035 2.608,-2.372 3.287,-4.203 2.056,-5.547 3.07,-11.391 4.049,-17.04 0.317,-1.817 0.631,-3.632 0.98,-5.44 0.543,-2.809 1.723,-5.75 6.367,-6.256 5.215,-0.566 8.2,1.408 8.826,5.879 0.136,0.961 0.185,1.727 0.156,2.41 -0.042,0.997 -0.079,1.997 -0.115,2.998 -0.106,2.888 -0.213,5.873 -0.511,8.784 -0.566,5.531 -1.363,11.136 -2.133,16.558 -0.323,2.269 -1.367,4.144 -3.206,5.83 -4.822,4.414 -9.674,8.95 -14.368,13.338 -2.774,2.593 -5.55,5.186 -8.334,7.772 -0.785,0.729 -1.034,1.471 -0.836,2.48 0.408,2.052 0.777,4.111 1.146,6.17 l 1.637,8.927 3.447,-2.763 c 2.104,-1.689 4.136,-3.322 6.192,-4.929 2.969,-2.317 6.282,-3.008 9.857,-2.054 1.922,0.514 3.84,1.206 5.693,1.874 0.923,0.333 1.846,0.665 2.772,0.979 1.604,0.542 3.21,1.073 4.891,1.63 l 3.001,0.995 0.002,-1.298 c 0.004,-0.441 0.006,-0.819 -0.006,-1.197 -0.03,-0.92 -0.067,-1.84 -0.103,-2.76 -0.063,-1.566 -0.126,-3.131 -0.155,-4.698 -0.241,-13.249 -0.47,-26.497 -0.699,-39.746 l -0.211,-12.399 c -0.059,-3.556 -0.118,-7.113 -0.182,-10.669 -0.021,-1.091 0.36,-1.798 1.196,-2.225 0.89,-0.453 1.788,-0.427 2.674,0.076 0.888,0.505 1.077,1.319 1.095,2.469 0.061,3.873 0.126,7.746 0.191,11.619 l 0.817,52.191 c 0.047,2.508 0.091,5.017 0.099,7.524 0.004,1.438 0.179,3.026 2.213,3.688 0.43,0.139 0.839,0.428 1.257,0.738 1.948,1.438 2.883,3.555 2.632,5.958 C 4.025,-3.707 2.253,-1.062 0,0 m -72.212,-19.403 c -0.292,-1.541 -0.584,-3.082 -0.884,-4.622 l -0.071,-0.364 h -0.385 c -1.089,0 -2.168,-0.007 -3.238,-0.015 -1.077,-0.007 -2.129,-0.015 -3.17,-0.015 -1.462,0 -2.901,0.015 -4.359,0.062 -0.998,0.033 -1.799,0.412 -2.312,1.096 -0.614,0.819 -0.738,1.972 -0.346,3.247 0.965,3.13 1.936,6.256 2.907,9.383 0.89,2.865 1.781,5.729 2.664,8.594 0.895,2.893 2.349,5.499 4.324,7.746 3.52,4.005 7.932,6.548 13.49,7.772 l 0.923,0.204 -0.398,-0.826 C -68.059,2.511 -70.17,-8.629 -72.212,-19.403 m 15.605,-31.983 c -1.784,-4.308 -3.583,-8.61 -5.391,-12.909 -0.22,-0.523 -0.512,-1.03 -0.846,-1.465 -4.775,-6.239 -9.562,-12.47 -14.356,-18.697 -0.793,-1.032 -1.721,-1.557 -2.703,-1.557 -0.503,0 -1.022,0.138 -1.541,0.416 -0.799,0.427 -1.342,1.091 -1.529,1.871 -0.209,0.87 0.027,1.834 0.663,2.711 l 3.036,4.171 c 2.932,4.026 5.965,8.189 8.901,12.311 0.519,0.728 0.911,1.707 1.077,2.684 0.819,4.838 1.588,9.685 2.378,14.672 l 0.88,5.535 6.296,-4.149 c 0.345,-0.229 0.688,-0.462 1.033,-0.695 L -57.951,-47 c 2.334,-1.567 2.409,-1.812 1.344,-4.386 m 55.682,43.721 c -0.332,-0.856 -1.147,-1.543 -2.295,-1.933 -4.329,-1.475 -8.666,-2.936 -13.002,-4.396 l -5.405,-1.821 c -0.602,-0.2 -1.205,-0.402 -1.807,-0.609 -2.306,-0.791 -4.437,-0.425 -6.335,1.092 -4.065,3.249 -8.128,6.501 -12.19,9.755 -1.085,0.869 -2.151,1.181 -2.989,0.888 -0.843,-0.295 -1.443,-1.191 -1.691,-2.522 -0.539,-2.92 -1.068,-5.841 -1.598,-8.764 -0.673,-3.72 -1.348,-7.441 -2.045,-11.157 -0.167,-0.897 0.012,-1.536 0.6,-2.135 1.267,-1.295 2.53,-2.595 3.791,-3.897 2.699,-2.783 5.489,-5.659 8.302,-8.424 2.261,-2.222 4.611,-4.438 6.882,-6.58 1.952,-1.84 3.905,-3.68 5.827,-5.548 0.87,-0.846 1.483,-1.885 1.637,-2.778 0.742,-4.301 1.496,-8.681 1.887,-13.027 0.309,-3.394 0.42,-6.856 0.528,-10.205 0.044,-1.37 0.089,-2.738 0.146,-4.107 0.02,-0.546 -0.011,-1.102 -0.092,-1.654 -0.16,-1.073 -0.474,-1.726 -1.023,-2.116 -0.38,-0.27 -0.858,-0.402 -1.495,-0.402 -0.294,0 -0.619,0.029 -0.983,0.082 -1.357,0.205 -1.7,1.112 -1.858,1.975 l -1.843,10.217 c -0.839,4.626 -1.912,9.983 -4.013,15.014 -0.701,1.674 -1.758,2.973 -3.232,3.97 -4.203,2.838 -8.401,5.686 -12.596,8.533 -5.519,3.744 -11.039,7.487 -16.57,11.212 -3.048,2.053 -4.412,4.634 -4.425,8.371 0.157,0.945 0.307,1.873 0.461,2.838 0.359,2.24 0.766,4.781 1.304,7.256 1.38,6.35 3.051,13.875 4.984,21.534 0.537,2.129 1.462,4.349 2.83,6.786 1.393,2.482 3.417,3.99 5.7,4.249 2.358,0.272 4.806,-0.808 6.876,-3.031 4.479,-4.817 8.999,-9.603 13.516,-14.389 l 2.521,-2.67 c 3.224,-3.419 7.036,-4.294 11.649,-2.688 3.636,1.269 7.352,2.508 10.945,3.706 l 2.849,0.951 c 1.774,0.596 3.186,0.163 3.987,-1.203 0.468,-0.796 0.561,-1.616 0.265,-2.373"
             style="fill:#ffffff;fill-opacity:1;fill-rule:nonzero;stroke:none"
             id="path28" />
        </g>
      </g>
    </g>
  </g>
</svg>
