<?xml version="1.0" encoding="UTF-8"?>
<svg xmlns="http://www.w3.org/2000/svg" viewBox="0 0 15.59 15.59">
  <defs>
    <style>
      .cls-1 {
        fill: #fff;
      }

      .cls-2 {
        fill: #071f39;
      }
    </style>
  </defs>
  <g id="Cirkel">
    <rect class="cls-2" x="0" y="0" width="15.59" height="15.59" rx="7.8" ry="7.8"/>
  </g>
  <g id="ICONS">
    <g>
      <path class="cls-1" d="M6.61,11.87c-.4.4-.92.61-1.48.61s-1.08-.22-1.48-.61c-.81-.81-.81-2.14,0-2.96l3.6-3.6-.25-.25-3.6,3.6c-.46.46-.71,1.07-.71,1.73,0,.65.25,1.26.71,1.73s1.1.71,1.73.71,1.25-.24,1.73-.71l.4-.4-.25-.25-.39.39Z"/>
      <path class="cls-1" d="M8.82,3.74c.4-.4.92-.61,1.48-.61s1.08.22,1.48.61c.81.81.81,2.14,0,2.96l-3.6,3.6.25.25,3.6-3.6c.46-.46.71-1.07.71-1.73,0-.65-.25-1.26-.71-1.73-.95-.95-2.5-.95-3.45,0l-.4.4.25.25.4-.4Z"/>
      <path class="cls-1" d="M11.63,8.27l-.25.25.39.39c.81.81.81,2.14,0,2.96-.4.4-.92.61-1.48.61s-1.08-.22-1.48-.61l-3.6-3.6-.25.25,3.6,3.6c.48.48,1.1.71,1.73.71s1.25-.24,1.73-.71.71-1.07.71-1.73-.25-1.27-.71-1.73l-.39-.39Z"/>
      <path class="cls-1" d="M3.79,7.33l.25-.25-.39-.39c-.81-.81-.81-2.14,0-2.96.82-.82,2.14-.82,2.96,0l3.6,3.6.25-.25-3.6-3.6c-.95-.95-2.5-.95-3.45,0-.95.95-.95,2.5,0,3.45l.39.39Z"/>
    </g>
  </g>
</svg>