<?xml version="1.0" encoding="UTF-8"?>
<svg xmlns="http://www.w3.org/2000/svg" viewBox="0 0 15.59 15.59">
  <defs>
    <style>
      .cls-1 {
        fill: #071f39;
      }

      .cls-1, .cls-2 {
        stroke-width: 0px;
      }

      .cls-2 {
        fill: #fff;
      }
    </style>
  </defs>
  <g id="Cirkel">
    <rect class="cls-1" x="0" y="0" width="15.59" height="15.59" rx="7.8" ry="7.8"/>
  </g>
  <g id="ICONS">
    <g>
      <path class="cls-2" d="M8.71,9.75l.99-1.17c.09-.1.07-.26-.03-.34-.1-.09-.26-.07-.34.03l-.99,1.17c-.09.1-.07.26.03.34s.26.07.34-.03Z"/>
      <path class="cls-2" d="M11.65,9.03c-.19,0-.38.03-.55.08l-.97-2.32c.09-.02.15-.1.15-.19,0-.11-.09-.19-.19-.19h-1.1c-.11,0-.19.09-.19.19s.09.19.19.19h.73s0,.02.01.03l.54,1.28-1.99,2.43-1.23-2.93h.56c.11,0,.19-.09.19-.19s-.09-.19-.19-.19h-1.1c-.11,0-.19.09-.19.19s.09.19.19.19h.13s0,.03.01.05l.39.92-.48.68c-.27-.15-.59-.24-.92-.24-.28,0-.54.07-.77.18,0,0,0,0,0,0-.07.03-.12.08-.12.16,0,.11.09.19.19.19.03,0,.06-.02.08-.03,0,0,0,0,0,0,0,0,0,0,0,.01.19-.09.39-.14.61-.14.25,0,.49.06.69.17l-.86,1.21s-.04.1-.02.15c0,.09.08.16.17.16h1.51c-.1.74-.73,1.31-1.49,1.31-.83,0-1.5-.67-1.5-1.5,0,0,0,0,0-.01h0v-3.12h.06c.12,0,.22-.1.22-.22h0s0-.01,0-.01c0-.02,0-.04,0-.07v-.23c.05,0,.1,0,.14,0,.13,0,.26-.01.38-.05.23-.08.36-.26.35-.5,0-.14,0-.27,0-.41,0-.35,0-.69,0-1.04,0-.13,0-.27,0-.4.08,0,.15,0,.22,0,.03,0,.05-.01.08-.03.2-.19.2-.5,0-.69-.03-.03-.05-.04-.1-.04-.12,0-.23,0-.35,0-.05,0-.11,0-.17,0,0-.33,0-.64,0-.96,0-.1-.04-.17-.11-.22-.08-.06-.17-.09-.26-.04-.09.05-.17.12-.17.24,0,.31,0,.62,0,.93,0,.02,0,.04,0,.06-.35,0-.69,0-1.02,0,0-.1-.02-.19-.02-.28,0-.26,0-.52,0-.77,0-.02,0-.03,0-.05-.05-.09-.12-.17-.24-.18-.11-.01-.18.04-.24.12-.03.03-.05.06-.05.11,0,.26,0,.53,0,.79,0,.08,0,.17,0,.26-.05,0-.09,0-.13,0-.13,0-.26,0-.39,0-.04,0-.06.01-.09.04-.19.19-.2.49,0,.69.03.03.06.05.11.04.07,0,.13,0,.2,0,0,.09,0,.18.01.26,0,.28,0,.56,0,.84,0,.26,0,.53,0,.79,0,.2.1.34.28.43.15.07.31.08.47.08.04,0,.09,0,.12,0,0,0,0,0,0,0v.3c0,.12.1.22.22.22h.06v3.11s0,.01,0,.02c0,0,0,.02,0,.02v.03h0c.03,1.02.86,1.83,1.88,1.83s1.78-.74,1.88-1.69h.69s0,0,0,0c.06,0,.12-.02.17-.07l2.07-2.53.31.74c-.58.32-.98.94-.98,1.66,0,1.04.85,1.89,1.89,1.89s1.89-.85,1.89-1.89-.85-1.89-1.89-1.89ZM3.53,5.13h.74s-.26.66-.26.66h.27s-.46,1.03-.46,1.03l.03-.79h-.29s-.01-.9-.01-.9ZM5.99,10.73l.64-.91c.26.23.43.55.48.91h-1.12ZM7.5,10.73c-.05-.49-.29-.93-.64-1.23l.34-.48.72,1.71h-.42ZM11.65,12.42c-.83,0-1.5-.67-1.5-1.5,0-.55.3-1.04.74-1.3l.54,1.29c.04.1.16.15.25.1.1-.04.15-.16.1-.25l-.54-1.29c.13-.03.26-.05.4-.05.83,0,1.5.67,1.5,1.5s-.67,1.5-1.5,1.5Z"/>
    </g>
  </g>
</svg>